<?xml version="1.0" standalone="no"?>
<!DOCTYPE svg PUBLIC "-//W3C//DTD SVG 20010904//EN"
 "http://www.w3.org/TR/2001/REC-SVG-20010904/DTD/svg10.dtd">
<svg version="1.0" xmlns="http://www.w3.org/2000/svg"
 width="500.000000pt" height="500.000000pt" viewBox="0 0 500.000000 500.000000"
 preserveAspectRatio="xMidYMid meet">
<metadata>
Created by potrace 1.14, written by Peter Selinger 2001-2017
</metadata>
<g transform="translate(0.000000,500.000000) scale(0.100000,-0.100000)"
fill="#000000" stroke="none">
<path d="M1855 3281 c-39 -10 -108 -46 -124 -64 -10 -13 -6 -13 31 0 58 21
144 22 198 5 26 -9 62 -34 90 -61 44 -45 56 -65 150 -266 26 -55 69 -145 95
-200 26 -55 69 -147 95 -205 27 -58 62 -134 79 -169 l30 -64 47 99 c25 54 61
132 80 172 19 39 50 107 70 150 157 337 223 459 265 496 73 62 176 78 279 42
36 -12 39 -12 28 1 -23 28 -112 65 -168 70 -96 9 -179 -34 -241 -124 -29 -41
-202 -397 -307 -628 -51 -113 -51 -113 -78 -58 -26 55 -104 222 -141 303 -100
217 -176 362 -211 406 -68 86 -163 120 -267 95z"/>
<path d="M1780 3163 c-8 -2 -29 -11 -47 -19 -37 -17 -57 -40 -25 -30 43 14 89
15 141 4 43 -9 63 -21 101 -59 26 -26 57 -67 68 -91 11 -24 84 -180 162 -348
303 -649 290 -624 320 -628 18 -3 32 21 109 180 49 101 100 208 114 238 13 30
43 93 65 140 22 47 70 150 107 230 91 200 106 227 140 265 62 68 151 95 242
75 53 -12 52 -6 -5 22 -71 36 -149 37 -218 3 -73 -36 -96 -67 -180 -240 -131
-273 -364 -776 -364 -787 0 -26 -22 14 -96 172 -42 91 -101 216 -130 279 -30
62 -54 115 -54 116 0 17 -177 366 -200 395 -42 52 -120 90 -184 89 -28 0 -58
-3 -66 -6z"/>
<path d="M1725 3051 c-16 -4 -48 -17 -70 -29 -35 -20 -37 -21 -10 -15 61 14
125 6 168 -23 40 -26 97 -82 97 -95 0 -4 21 -51 46 -106 25 -54 73 -156 106
-228 34 -71 85 -182 116 -245 30 -63 81 -173 114 -245 81 -175 113 -207 208
-207 57 0 101 21 133 64 20 27 155 309 342 713 131 283 158 325 224 360 38 19
91 25 134 16 20 -5 37 -7 37 -5 0 2 -17 12 -37 23 -85 43 -169 36 -236 -20
-28 -23 -54 -65 -102 -165 -36 -74 -65 -136 -65 -138 0 -2 -26 -60 -59 -127
-32 -68 -70 -149 -84 -179 -34 -76 -173 -367 -195 -410 -33 -66 -115 -82 -163
-33 -10 10 -47 81 -82 158 -36 77 -91 194 -122 260 -31 66 -67 143 -80 170
-148 327 -201 430 -238 462 -53 46 -112 61 -182 44z"/>
<path d="M1633 2930 c-48 -21 -80 -61 -121 -150 -48 -102 -261 -559 -290 -620
-56 -119 -33 -258 58 -349 119 -119 306 -120 425 -3 38 37 116 191 268 526
l22 49 44 -94 c194 -414 207 -438 247 -480 60 -62 116 -83 214 -84 73 0 92 4
136 27 68 36 118 94 160 186 47 103 120 258 169 360 l40 82 55 -117 c204 -440
220 -467 316 -513 67 -32 170 -36 241 -9 65 25 137 93 166 157 28 64 32 169 8
231 -23 56 -255 553 -314 671 -46 93 -92 135 -159 145 -49 8 -117 -22 -151
-66 -20 -27 -147 -281 -147 -294 0 -3 -28 -62 -154 -330 -24 -49 -69 -148
-102 -219 -69 -150 -104 -195 -176 -226 -89 -38 -201 -12 -262 61 -25 29 -41
61 -138 269 -22 47 -52 110 -66 140 -14 30 -27 57 -27 60 -1 3 -22 48 -47 100
-25 52 -57 120 -71 150 -129 281 -145 308 -200 337 -45 23 -97 24 -144 3z m54
-92 c-8 -18 -31 -67 -51 -109 -19 -42 -64 -138 -100 -214 -36 -75 -66 -139
-66 -141 0 -1 -28 -61 -61 -131 -79 -165 -88 -192 -82 -239 7 -56 28 -91 71
-119 69 -46 160 -37 213 20 17 18 50 75 74 126 23 52 69 150 101 219 33 69 75
160 94 202 19 43 38 77 41 78 3 0 12 -15 21 -33 15 -32 15 -34 -46 -163 -33
-71 -79 -168 -100 -215 -112 -241 -134 -275 -206 -307 -131 -57 -284 15 -321
152 -21 79 -11 110 131 411 29 61 84 178 122 260 87 187 103 214 142 230 17 7
33 12 35 10 2 -3 -3 -19 -12 -37z m1733 -84 c25 -50 76 -158 114 -240 38 -82
95 -203 126 -269 75 -158 84 -187 77 -247 -21 -178 -222 -265 -368 -160 -48
34 -55 46 -167 287 -175 374 -160 336 -145 373 7 17 16 32 21 32 4 0 24 -38
44 -83 76 -169 135 -294 198 -420 58 -117 69 -133 105 -151 56 -29 124 -26
175 8 49 32 73 76 73 136 1 45 0 48 -141 350 -22 47 -76 164 -121 260 -45 96
-88 188 -96 205 -19 40 -9 49 28 28 24 -13 44 -42 77 -109z m-1664 -85 c-119
-251 -166 -352 -166 -354 0 -2 -29 -65 -65 -141 -70 -146 -77 -179 -35 -179
27 0 44 30 147 250 159 344 204 440 208 443 2 3 11 -11 20 -30 19 -38 30 -7
-110 -308 -187 -401 -194 -414 -246 -423 -58 -11 -123 52 -113 108 3 19 297
653 355 767 l21 41 19 -30 19 -30 -54 -114z m1560 -5 c42 -87 97 -206 124
-264 26 -58 73 -158 103 -222 66 -139 72 -164 45 -206 -33 -53 -103 -60 -149
-16 -16 15 -29 31 -29 35 0 4 -20 49 -44 101 -55 115 -190 404 -223 477 -25
53 -25 55 -8 90 l17 36 36 -75 c19 -41 64 -135 99 -209 35 -73 63 -134 63
-136 0 -4 131 -280 135 -284 11 -11 55 11 55 28 0 10 -24 69 -54 132 -29 63
-65 139 -79 169 -25 54 -60 129 -163 349 -53 112 -54 113 -37 142 10 16 21 25
26 20 4 -4 42 -79 83 -167z"/>
</g>
</svg>
