<?xml version="1.0" standalone="no"?>
<!DOCTYPE svg PUBLIC "-//W3C//DTD SVG 20010904//EN"
 "http://www.w3.org/TR/2001/REC-SVG-20010904/DTD/svg10.dtd">
<svg version="1.0" xmlns="http://www.w3.org/2000/svg"
 width="1557.000000pt" height="1557.000000pt" viewBox="0 0 1557.000000 1557.000000"
 preserveAspectRatio="xMidYMid meet">
<metadata>
Created by potrace 1.14, written by Peter Selinger 2001-2017
</metadata>
<g transform="translate(0.000000,1557.000000) scale(0.100000,-0.100000)"
fill="#000000" stroke="none">
<path d="M1975 14512 c-20 -3 -20 -10 -18 -6125 1 -3367 2 -6131 2 -6142 1
-20 5 -20 2919 -19 1604 0 2960 4 3012 8 257 19 233 16 404 36 54 7 106 13
115 15 17 3 88 14 136 21 17 2 53 9 80 14 28 5 64 12 82 15 214 35 620 145
887 240 415 147 930 396 1225 592 3 2 -22 36 -72 98 -11 14 -184 234 -213 270
-13 17 -129 164 -257 328 -129 164 -245 312 -258 329 -13 17 -29 36 -34 42
-10 11 -96 120 -205 261 -156 202 -413 526 -420 530 -4 3 -35 -10 -67 -29
-212 -119 -630 -287 -823 -331 -8 -2 -42 -10 -75 -19 -122 -31 -256 -58 -355
-71 -8 -1 -37 -5 -65 -9 -94 -14 -110 -15 -210 -23 -55 -4 -192 -8 -305 -8
-230 0 -343 7 -520 31 -25 3 -55 8 -67 9 -12 2 -34 6 -50 9 -15 3 -46 8 -68
12 -69 9 -355 81 -460 114 -405 130 -847 360 -1170 609 -64 49 -69 53 -190
156 -117 100 -350 339 -445 457 -45 57 -91 114 -103 128 -11 13 -66 92 -122
175 -139 207 -225 364 -351 643 -51 111 -128 338 -180 529 -29 107 -30 113
-59 263 -3 14 -7 36 -10 50 -6 30 -11 67 -20 140 -4 30 -9 63 -11 73 -12 63
-19 247 -19 467 1 276 6 356 41 585 5 28 9 52 9 55 1 3 5 25 9 50 70 389 237
850 423 1168 24 41 43 76 43 78 0 3 34 57 76 121 199 305 407 551 664 782 46
42 94 84 105 94 55 50 266 205 381 280 245 159 424 250 759 382 11 4 27 9 35
11 8 2 23 7 35 13 79 39 487 142 660 167 28 3 57 8 65 9 9 2 43 6 75 10 33 4
71 9 85 11 129 20 617 20 765 -1 17 -3 68 -9 115 -15 47 -5 95 -12 106 -14 12
-2 39 -7 60 -10 22 -4 46 -8 54 -11 8 -2 31 -6 50 -9 19 -3 105 -23 190 -45
879 -226 1648 -755 2180 -1500 176 -247 310 -493 440 -806 99 -240 204 -640
235 -900 4 -27 8 -60 10 -73 27 -165 27 -740 1 -902 -3 -14 -7 -47 -11 -75 -3
-27 -8 -59 -10 -70 -3 -11 -7 -36 -9 -55 -8 -51 -43 -222 -62 -293 -9 -34 -17
-69 -19 -77 -2 -8 -28 -89 -58 -180 -143 -433 -338 -800 -621 -1165 -73 -95
-85 -109 -160 -192 l-47 -52 85 -108 c80 -101 196 -248 250 -318 25 -31 177
-225 224 -284 15 -19 114 -145 219 -280 106 -135 202 -257 214 -270 11 -14 33
-41 47 -60 22 -29 115 -148 189 -241 7 -8 58 -73 113 -145 56 -71 110 -139
120 -149 19 -19 21 -17 157 120 154 156 264 272 286 304 8 11 30 37 48 58 36
38 149 178 184 226 11 15 29 38 40 51 33 39 107 143 198 280 48 72 93 139 101
150 63 95 199 336 288 510 259 511 460 1103 554 1635 9 47 20 110 25 140 11
61 16 92 25 164 3 27 7 56 9 65 1 9 6 48 10 86 4 39 8 84 10 100 2 17 6 73 10
125 3 52 8 119 11 149 3 30 5 165 5 300 0 226 -3 334 -16 481 -3 30 -7 84 -10
120 -3 36 -7 76 -10 90 -2 14 -6 52 -10 85 -3 33 -7 71 -10 85 -2 14 -7 43
-10 65 -4 35 -17 111 -20 125 -1 3 -5 25 -9 50 -6 36 -58 289 -71 350 -4 15
-52 193 -78 290 -94 338 -317 877 -500 1205 -24 44 -57 103 -72 130 -16 28
-47 79 -70 115 -23 36 -44 70 -46 75 -7 17 -175 265 -240 355 -59 80 -265 341
-305 385 -11 12 -57 63 -104 115 -263 293 -619 614 -930 838 -47 34 -89 65
-95 70 -19 15 -240 160 -310 202 -289 177 -660 364 -905 457 -36 14 -78 31
-95 38 -133 59 -517 180 -753 236 -139 33 -399 85 -475 95 -15 2 -39 6 -55 9
-126 23 -398 49 -632 61 -128 6 -5862 12 -5905 6z"/>
<path d="M7387 11044 c-1 -1 -49 -4 -107 -8 -58 -3 -121 -8 -140 -11 -19 -3
-66 -10 -105 -16 -111 -17 -341 -74 -450 -113 -573 -200 -1062 -591 -1384
-1107 -151 -243 -285 -566 -337 -814 -49 -236 -58 -328 -59 -570 0 -203 6
-325 19 -390 2 -11 7 -41 10 -66 5 -38 14 -79 51 -244 14 -60 79 -253 114
-338 41 -100 131 -281 161 -327 10 -14 37 -56 61 -95 302 -485 816 -889 1374
-1080 300 -102 538 -140 870 -139 236 0 323 8 530 50 507 102 976 354 1340
720 108 109 141 145 195 214 19 25 41 51 48 59 7 7 54 75 103 149 176 265 312
584 374 872 2 8 8 35 14 60 5 25 13 68 16 95 4 28 8 57 10 65 4 16 13 91 20
180 6 74 6 278 0 370 -7 109 -11 144 -42 335 -3 24 -42 178 -57 230 -1 6 -8
30 -15 54 -43 151 -160 409 -265 581 -263 435 -656 796 -1101 1009 -165 79
-194 92 -330 136 -279 93 -524 134 -823 139 -52 0 -94 0 -95 0z"/>
</g>
</svg>
