<svg width="215" height="43" viewBox="0 0 215 43" fill="none" xmlns="http://www.w3.org/2000/svg">
<path d="M60.2197 6.05518H64.922V28.8967H60.2197V6.05518Z" fill="white"/>
<path d="M67.5554 21.0717C67.5437 19.4304 68.0186 17.8231 68.9191 16.456C69.59 15.4283 70.4791 14.5639 71.522 13.9255C72.565 13.287 73.7357 12.8904 74.9493 12.7644C76.163 12.6383 77.3892 12.786 78.5393 13.1968C79.6894 13.6075 80.7345 14.271 81.599 15.1393C82.4635 16.0075 83.1257 17.0587 83.5377 18.2169C83.9498 19.375 84.1013 20.611 83.9813 21.8355C83.8614 23.0599 83.4729 24.2421 82.8441 25.2966C82.2153 26.351 81.3619 27.2512 80.3457 27.932C78.9975 28.8474 77.4096 29.3372 75.7844 29.3389C74.7101 29.3366 73.646 29.1274 72.6496 28.7224C71.6523 28.3087 70.7457 27.7006 69.9819 26.9329C69.218 26.1653 68.6118 25.2532 68.198 24.2489C67.7743 23.2442 67.5557 22.1636 67.5554 21.0717V21.0717ZM79.3425 21.0717C79.3309 20.5372 79.2011 20.0121 78.9625 19.5348C78.7239 19.0574 78.3826 18.6399 77.9634 18.3126C77.5443 17.9854 77.0579 17.7567 76.5399 17.6433C76.0219 17.53 75.4853 17.5347 74.9694 17.6573C74.2854 17.8058 73.6591 18.1519 73.1668 18.6532C72.6907 19.1665 72.3746 19.8096 72.2577 20.5026C72.1173 21.1992 72.194 21.9225 72.4771 22.5734C72.7512 23.2252 73.2095 23.7811 73.7948 24.1719C74.3802 24.5626 75.0668 24.7708 75.7687 24.7706C76.2459 24.7819 76.7204 24.6959 77.1638 24.5177C77.6102 24.3318 78.0152 24.0576 78.355 23.7115C78.6851 23.3603 78.9414 22.9454 79.1084 22.4917C79.2754 22.0381 79.3497 21.555 79.3268 21.0717H79.3425Z" fill="white"/>
<path d="M102.509 13.2473V28.1061C102.509 33.3541 98.4497 35.5829 94.3117 35.5829C92.8591 35.6923 91.4046 35.3962 90.1079 34.727C88.8111 34.0578 87.7222 33.0414 86.9604 31.7892L90.9417 29.4813C91.2518 30.149 91.7616 30.7018 92.3994 31.062C93.0267 31.4221 93.7514 31.5716 94.4685 31.4888C94.9307 31.556 95.4019 31.5182 95.8478 31.3782C96.2885 31.2317 96.6914 30.9884 97.0275 30.6659C97.3636 30.3433 97.6245 29.9495 97.7914 29.5129C97.9491 29.0729 98.0132 28.6043 97.9795 28.1377V26.7151C97.4356 27.3924 96.7435 27.9334 95.9575 28.2958C95.1671 28.6407 94.3102 28.8027 93.4496 28.77C91.3586 28.77 89.3532 27.9323 87.8747 26.4412C86.3961 24.9501 85.5654 22.9277 85.5654 20.819C85.5654 18.7102 86.3961 16.6878 87.8747 15.1967C89.3532 13.7056 91.3586 12.8679 93.4496 12.8679C94.3108 12.8274 95.1694 12.9897 95.9575 13.3421C96.7466 13.6994 97.4397 14.2413 97.9795 14.9228V13.3421L102.509 13.2473ZM97.9795 20.819C98.0145 20.0609 97.8175 19.3104 97.4152 18.6692C97.0471 18.0347 96.502 17.5234 95.8478 17.1991C95.1635 16.8837 94.4006 16.7844 93.6593 16.9142C92.918 17.044 92.233 17.3967 91.6941 17.9262C91.1505 18.4495 90.7785 19.1279 90.6282 19.8705C90.4626 20.6101 90.5283 21.3832 90.8163 22.0835C91.0985 22.7575 91.5686 23.3343 92.1696 23.744C92.7707 24.1537 93.4767 24.3786 94.202 24.3914C94.6917 24.4277 95.1835 24.3576 95.644 24.1859C96.1079 24.0219 96.5305 23.7575 96.8823 23.4113C97.2407 23.0721 97.5192 22.6562 97.6974 22.1942C97.8832 21.7599 97.9792 21.2919 97.9795 20.819Z" fill="white"/>
<path d="M105.174 21.0717C105.181 19.0203 105.942 17.0444 107.308 15.5252C108.675 14.0059 110.552 13.0511 112.575 12.8448C114.599 12.6386 116.627 13.1955 118.268 14.4083C119.908 15.621 121.045 17.4035 121.459 19.4119C121.779 21.003 121.621 22.6542 121.005 24.1541C120.595 25.169 119.991 26.0925 119.227 26.8717C118.463 27.6508 117.555 28.2703 116.553 28.6946C115.551 29.119 114.476 29.3399 113.39 29.3447C112.303 29.3494 111.226 29.138 110.221 28.7224C109.218 28.3141 108.306 27.7067 107.541 26.9362C106.768 26.1743 106.159 25.2594 105.754 24.2489C105.359 23.2375 105.162 22.1586 105.174 21.0717V21.0717ZM116.977 21.0717C116.95 20.363 116.721 19.6771 116.318 19.0958C115.914 18.5113 115.346 18.0621 114.687 17.8058C114.028 17.5495 113.308 17.4978 112.619 17.6573C111.935 17.8069 111.31 18.1567 110.822 18.6628C110.334 19.1689 110.005 19.8088 109.876 20.5026C109.752 21.1999 109.828 21.9183 110.096 22.5734C110.373 23.218 110.831 23.7672 111.412 24.1541C111.907 24.4761 112.47 24.6755 113.056 24.736C113.642 24.7964 114.233 24.7162 114.782 24.5019C115.231 24.3199 115.637 24.0453 115.973 23.6957C116.309 23.348 116.571 22.934 116.741 22.4798C116.91 22.0255 116.985 21.5407 116.961 21.0559L116.977 21.0717Z" fill="white"/>
<path d="M123.764 9.05805C123.762 8.49586 123.926 7.94581 124.234 7.47732C124.539 7.0111 124.976 6.64774 125.488 6.43404C125.983 6.2261 126.529 6.17108 127.055 6.27597C127.596 6.38815 128.091 6.65756 128.481 7.05088C128.871 7.4442 129.139 7.94418 129.25 8.48898C129.355 9.02411 129.303 9.57854 129.099 10.0841C128.896 10.5896 128.551 11.0242 128.106 11.3343C127.641 11.6451 127.096 11.8101 126.538 11.8085C125.802 11.7963 125.099 11.4959 124.579 10.9709C124.058 10.4458 123.76 9.73725 123.748 8.99482L123.764 9.05805ZM124.234 13.247H128.936V28.8961H124.234V13.247Z" fill="white"/>
<path d="M149.062 21.0721C149.104 22.1077 148.956 23.1422 148.623 24.1229C148.274 25.0964 147.742 25.9927 147.056 26.7627C146.363 27.5311 145.527 28.1542 144.595 28.5964C143.661 29.0261 142.657 29.278 141.632 29.3393C140.769 29.3833 139.907 29.2321 139.109 28.8967C138.316 28.5651 137.605 28.0635 137.024 27.4266V35.1564H132.322V13.2475H137.024V14.7176C137.6 14.0699 138.314 13.5615 139.112 13.2303C139.909 12.8992 140.771 12.7538 141.632 12.8049C142.659 12.851 143.666 13.1036 144.595 13.5479C145.993 14.2171 147.163 15.2888 147.958 16.6278C148.753 17.9669 149.137 19.5133 149.062 21.0721V21.0721ZM144.36 21.0721C144.34 20.3317 144.106 19.6133 143.685 19.0062C143.264 18.3992 142.676 17.9302 141.993 17.6578C141.312 17.4024 140.574 17.3422 139.861 17.4839C139.154 17.6454 138.506 18.0074 137.996 18.5272C137.496 19.056 137.159 19.7198 137.025 20.4381C136.892 21.1563 136.967 21.8982 137.244 22.5738C137.525 23.2513 137.999 23.8291 138.607 24.2336C139.21 24.6402 139.92 24.855 140.645 24.8501C141.145 24.8779 141.644 24.7963 142.11 24.6107C142.575 24.4252 142.995 24.1401 143.341 23.7752C143.689 23.4154 143.957 22.9841 144.125 22.5106C144.301 22.0527 144.381 21.5629 144.36 21.0721V21.0721Z" fill="white"/>
<path d="M163.357 24.2018C163.357 27.8059 160.222 29.3392 156.899 29.3392C155.545 29.4529 154.187 29.1615 152.996 28.5014C151.803 27.8258 150.841 26.8005 150.238 25.5612L154.266 23.2376C154.43 23.8047 154.778 24.3001 155.254 24.6444C155.715 24.9593 156.265 25.1146 156.821 25.087C157.934 25.087 158.498 24.7392 158.498 24.1228C158.498 22.3998 150.865 23.3008 150.865 17.8947C150.865 14.4803 153.717 12.7573 156.946 12.7573C158.16 12.7157 159.363 13.005 160.428 13.5948C161.493 14.1845 162.38 15.0529 162.997 16.1085L159.015 18.2741C158.844 17.8614 158.555 17.5093 158.185 17.2624C157.818 17.0171 157.386 16.8902 156.946 16.8989C156.131 16.8989 155.645 17.1992 155.645 17.7682C155.724 19.6019 163.357 18.4163 163.357 24.2018Z" fill="white"/>
<path d="M180.411 13.2471V28.8963H175.709V27.4262C175.171 28.0731 174.489 28.5823 173.718 28.9121C172.946 29.2419 172.11 29.3879 171.273 29.3389C168.138 29.3389 165.473 27.0784 165.473 22.8579V13.2471H170.176V22.1624C170.138 22.536 170.181 22.9134 170.301 23.2689C170.424 23.6201 170.616 23.9427 170.865 24.2173C171.13 24.4828 171.444 24.6924 171.79 24.8338C172.132 24.9768 172.503 25.0364 172.872 25.0077C174.58 25.0077 175.756 24.0118 175.756 21.8462V13.3103L180.411 13.2471Z" fill="white"/>
<path d="M207.057 19.2379V28.8487H202.355V19.6963C202.355 18.1156 201.603 17.1198 200.114 17.1198C198.625 17.1198 197.7 18.2263 197.7 20.0599V28.8962H192.997V19.6963C192.997 18.1156 192.261 17.1198 190.772 17.1198C189.283 17.1198 188.342 18.2263 188.342 20.0599V28.8962H183.64V13.247H188.342V14.6854C188.82 14.0401 189.458 13.533 190.192 13.2154C191.68 12.641 193.332 12.6693 194.8 13.2944C195.517 13.6569 196.127 14.2018 196.571 14.8751C197.087 14.1887 197.766 13.6449 198.546 13.2944C199.34 12.944 200.206 12.7921 201.07 12.8518C204.722 12.8044 207.057 15.381 207.057 19.2379Z" fill="white"/>
<path d="M210.992 13.1523C211.678 13.1554 212.349 12.9532 212.921 12.5713C213.492 12.1893 213.939 11.6448 214.203 11.0068C214.468 10.3687 214.539 9.6658 214.407 8.98711C214.275 8.30842 213.946 7.68447 213.462 7.19433C212.979 6.70419 212.361 6.3699 211.689 6.23382C211.017 6.09774 210.319 6.16599 209.686 6.42993C209.052 6.69386 208.51 7.14161 208.128 7.71643C207.747 8.29126 207.543 8.96729 207.543 9.65889C207.543 10.5827 207.906 11.4688 208.552 12.1235C209.199 12.7782 210.076 13.1481 210.992 13.1523V13.1523Z" fill="white"/>
<g clip-path="url(#clip0_13_939)">
<path d="M21.079 10.5395C21.079 11.9235 20.8064 13.2941 20.2767 14.5728C19.747 15.8515 18.9707 17.0133 17.992 17.992C17.0133 18.9707 15.8515 19.747 14.5728 20.2767C13.2941 20.8064 11.9235 21.079 10.5395 21.079H0V10.5395C0 7.74424 1.11041 5.06348 3.08694 3.08694C5.06348 1.11041 7.74424 0 10.5395 0C13.3347 0 16.0155 1.11041 17.992 3.08694C19.9686 5.06348 21.079 7.74424 21.079 10.5395V10.5395Z" fill="white"/>
<path d="M21.0791 31.6186C21.0791 28.8233 22.1895 26.1426 24.166 24.166C26.1426 22.1895 28.8233 21.0791 31.6186 21.0791H42.1581V31.6186C42.1581 34.4138 41.0477 37.0946 39.0711 39.0711C37.0946 41.0477 34.4138 42.1581 31.6186 42.1581C28.8233 42.1581 26.1426 41.0477 24.166 39.0711C22.1895 37.0946 21.0791 34.4138 21.0791 31.6186V31.6186Z" fill="white"/>
<path d="M0 31.6186C0 33.0027 0.272612 34.3732 0.80227 35.6519C1.33193 36.9306 2.10826 38.0924 3.08694 39.0711C5.06348 41.0477 7.74424 42.1581 10.5395 42.1581H21.079V31.6186C21.079 28.8233 19.9686 26.1426 17.992 24.166C16.0155 22.1895 13.3347 21.0791 10.5395 21.0791C7.74424 21.0791 5.06348 22.1895 3.08694 24.166C1.11041 26.1426 0 28.8233 0 31.6186V31.6186Z" fill="white"/>
<path d="M42.1581 10.5395C42.1581 7.74424 41.0477 5.06348 39.0711 3.08694C37.0946 1.11041 34.4138 0 31.6186 0H21.0791V10.5395C21.0791 13.3347 22.1895 16.0155 24.166 17.992C26.1426 19.9686 28.8233 21.079 31.6186 21.079C34.4138 21.079 37.0946 19.9686 39.0711 17.992C41.0477 16.0155 42.1581 13.3347 42.1581 10.5395V10.5395Z" fill="white"/>
</g>
<defs>
<clipPath id="clip0_13_939">
<rect width="42.1579" height="42.1579" fill="white"/>
</clipPath>
</defs>
</svg>
