<svg width="213" height="43" viewBox="0 0 213 43" fill="none" xmlns="http://www.w3.org/2000/svg">
<g clip-path="url(#clip0_13_940)">
<path d="M31.954 18.864C31.3561 19.4779 30.9 20.2217 30.6193 21.0406C30.3353 21.8561 30.2281 22.7255 30.3052 23.588V23.588C30.3935 24.6039 30.2649 25.6273 29.9284 26.5869C29.5861 27.5441 29.045 28.4135 28.3427 29.1346C27.6405 29.8556 26.7938 30.4112 25.8615 30.7627C24.926 31.1045 23.9312 31.2418 22.9409 31.1658C21.7568 31.0462 20.5657 31.3059 19.531 31.9093C18.4964 32.5126 17.669 33.43 17.1625 34.5355C16.6608 35.642 16.5017 36.8798 16.7067 38.0821C16.9116 39.2843 17.4708 40.3931 18.3088 41.2588C19.1674 42.1177 20.2649 42.6811 21.4492 42.8711C22.6179 43.0733 23.819 42.9037 24.8911 42.3849C25.9633 41.8662 26.8553 41.0232 27.4474 39.9689C28.024 38.9154 28.2707 37.7051 28.154 36.5025V36.5025C28.0718 35.4855 28.2058 34.4623 28.5466 33.5036C28.8803 32.5458 29.4165 31.6758 30.1168 30.9562C30.8208 30.2413 31.6672 29.6912 32.5978 29.3439C33.5268 28.9982 34.5184 28.8661 35.5027 28.9569V28.9569C36.4744 29.0398 37.451 28.8736 38.3447 28.4732C39.2327 28.0808 40.0063 27.4586 40.5902 26.6675C41.1823 25.8791 41.5705 24.9498 41.7188 23.966C41.8671 22.9821 41.7705 21.9758 41.4381 21.0406C41.1228 20.1062 40.5827 19.2687 39.8679 18.606C39.1415 17.9438 38.2592 17.4881 37.3084 17.2839C36.3607 17.0708 35.3759 17.1069 34.4454 17.3887C33.5149 17.6706 32.6687 18.1891 31.9854 18.8962L31.954 18.864Z" fill="white"/>
<path d="M20.3031 27.3603C21.1471 27.445 21.9989 27.3405 22.7997 27.054C23.5902 26.7529 24.3081 26.2801 24.9043 25.668C25.5005 25.0558 25.961 24.3187 26.2542 23.5069C26.5484 22.677 26.661 21.7908 26.5839 20.9111V20.9111C26.5017 19.8941 26.6357 18.8709 26.9765 17.9123C27.3102 16.9544 27.8464 16.0844 28.5467 15.3648C29.2459 14.6437 30.0937 14.0927 31.0276 13.7525C31.9745 13.4138 32.9846 13.3035 33.9797 13.4301V13.4301C35.162 13.5433 36.3496 13.2797 37.3808 12.6752C38.4121 12.0707 39.2369 11.1546 39.7431 10.0517C40.2493 8.94874 40.4123 7.71244 40.2099 6.511C40.0074 5.30956 39.4494 4.20133 38.6118 3.33709C37.7744 2.46897 36.6957 1.88833 35.524 1.67493C34.3523 1.46153 33.145 1.62582 32.0678 2.14525C30.9907 2.66468 30.0966 3.51377 29.5083 4.57591C28.92 5.63806 28.6664 6.86116 28.7822 8.07725V8.07725C28.8655 9.0943 28.7315 10.1177 28.3897 11.0761C28.0501 12.031 27.5146 12.8997 26.8195 13.6236C26.1172 14.3452 25.27 14.9008 24.3371 15.2517C23.4042 15.6025 22.408 15.7402 21.4179 15.6551V15.6551C20.579 15.5631 19.7307 15.6678 18.937 15.9614C18.1395 16.2497 17.4151 16.7181 16.8173 17.3319C16.2194 17.9458 15.7633 18.6896 15.4825 19.5084C15.1975 20.3238 15.0903 21.1934 15.1685 22.0559V22.0559C15.2438 23.0727 15.1101 24.0945 14.7759 25.0548C14.4336 26.012 13.8925 26.8814 13.1902 27.6025C12.488 28.3235 11.6413 28.8791 10.709 29.2306C9.75334 29.5533 8.74164 29.6633 7.74132 29.5531V29.5531C6.55798 29.4383 5.36903 29.7021 4.33737 30.3082C3.30572 30.9143 2.48184 31.8332 1.97863 32.9389C1.6039 33.7608 1.4178 34.6601 1.43464 35.5674C1.45148 36.4748 1.67081 37.3661 2.07576 38.1728C2.4807 38.9795 3.06047 39.68 3.77045 40.2205C4.48044 40.761 5.30172 41.1271 6.17111 41.2906C7.34352 41.5049 8.55186 41.3357 9.62558 40.8069C10.7057 40.2979 11.6015 39.4515 12.185 38.3885C12.7789 37.3292 13.0368 36.1064 12.923 34.8898C12.833 33.8726 12.9672 32.8476 13.3156 31.8909C13.6543 30.9356 14.1899 30.0667 14.8858 29.3435C15.5949 28.6351 16.4398 28.086 17.3668 27.7312C18.3076 27.3898 19.3097 27.2633 20.3031 27.3603V27.3603Z" fill="white"/>
<path d="M9.84539 24.1204C10.4432 23.5064 10.8993 22.7626 11.1801 21.9438C11.4631 21.128 11.5703 20.2588 11.4941 19.3963C11.4187 18.3795 11.5525 17.3577 11.8867 16.3974C12.229 15.4402 12.7701 14.5708 13.4723 13.8497C14.1746 13.1287 15.0212 12.5731 15.9535 12.2216C16.894 11.8776 17.8944 11.7403 18.8898 11.8185V11.8185C20.0732 11.9333 21.2621 11.6695 22.2938 11.0634C23.3254 10.4573 24.1493 9.53839 24.6525 8.43269C25.0275 7.60698 25.2122 6.70369 25.1924 5.79286C25.1725 4.88204 24.9487 3.98813 24.5382 3.18044C24.1277 2.37275 23.5416 1.67297 22.8253 1.13535C22.1089 0.597739 21.2816 0.236725 20.4075 0.0802984C19.5334 -0.0761278 18.636 -0.0237642 17.7848 0.23333C16.9336 0.490424 16.1514 0.945343 15.499 1.56282C14.8466 2.1803 14.3415 2.94375 14.0227 3.79399C13.704 4.64423 13.5802 5.55842 13.661 6.46569V6.46569C13.7441 7.48264 13.6069 8.50587 13.2594 9.46198C12.912 10.4181 12.3627 11.2834 11.6511 11.9959C10.9421 12.7042 10.0972 13.2533 9.17019 13.6082C8.2354 13.9527 7.23892 14.0847 6.24959 13.9951V13.9951C5.28288 13.9108 4.31103 14.0772 3.4232 14.4788C2.53665 14.889 1.76854 15.5278 1.19349 16.333C0.303027 17.5267 -0.112822 19.023 0.0300051 20.5195C0.172832 22.016 0.863681 23.4009 1.96289 24.3944C2.69403 25.0476 3.57302 25.502 4.51943 25.716C5.46583 25.9301 6.44942 25.897 7.38014 25.6198C8.31539 25.3498 9.16537 24.8328 9.84539 24.1204V24.1204Z" fill="white"/>
<path d="M58.4907 8.04541H63.2014V31.3431H58.4907V8.04541Z" fill="white"/>
<path d="M65.8391 23.362C65.8274 21.688 66.3031 20.0486 67.2052 18.6541C67.8773 17.6059 68.768 16.7243 69.8128 16.0731C70.8576 15.4218 72.0303 15.0173 73.2461 14.8888C74.4619 14.7602 75.6904 14.9109 76.8425 15.3298C77.9946 15.7488 79.0416 16.4255 79.9076 17.3111C80.7736 18.1967 81.437 19.2689 81.8498 20.4502C82.2626 21.6314 82.4144 22.8922 82.2942 24.1411C82.174 25.39 81.7849 26.5958 81.155 27.6713C80.525 28.7468 79.6701 29.665 78.6521 30.3594C77.3015 31.2931 75.7108 31.7926 74.0827 31.7943C73.0065 31.7921 71.9405 31.5786 70.9423 31.1655C69.9432 30.7435 69.0351 30.1233 68.2699 29.3403C67.5046 28.5574 66.8974 27.6271 66.4829 26.6027C66.0584 25.5779 65.8394 24.4757 65.8391 23.362V23.362ZM77.6471 23.362C77.6355 22.8169 77.5055 22.2813 77.2665 21.7944C77.0274 21.3075 76.6855 20.8816 76.2656 20.5479C75.8457 20.2141 75.3585 19.9808 74.8396 19.8652C74.3206 19.7495 73.7831 19.7544 73.2662 19.8795C72.5811 20.031 71.9536 20.3839 71.4605 20.8952C70.9835 21.4188 70.6668 22.0748 70.5497 22.7816C70.4091 23.4921 70.4859 24.2298 70.7696 24.8937C71.0441 25.5585 71.5032 26.1256 72.0896 26.5241C72.676 26.9227 73.3638 27.1351 74.067 27.1348C74.545 27.1464 75.0204 27.0586 75.4645 26.8768C75.9117 26.6872 76.3175 26.4076 76.6579 26.0546C76.9886 25.6963 77.2453 25.2732 77.4126 24.8104C77.5799 24.3477 77.6543 23.855 77.6314 23.362H77.6471Z" fill="white"/>
<path d="M100.855 15.3814V30.537C100.855 35.8899 96.788 38.1632 92.6427 38.1632C91.1875 38.2748 89.7304 37.9728 88.4314 37.2902C87.1323 36.6076 86.0414 35.5709 85.2784 34.2937L89.2667 31.9397C89.5773 32.6208 90.088 33.1846 90.727 33.552C91.3554 33.9193 92.0813 34.0717 92.7997 33.9874C93.2627 34.0559 93.7348 34.0173 94.1815 33.8745C94.6229 33.7251 95.0266 33.4769 95.3633 33.1479C95.7 32.8189 95.9614 32.4173 96.1286 31.972C96.2865 31.5232 96.3507 31.0453 96.317 30.5693V29.1182C95.7721 29.8091 95.0788 30.3609 94.2914 30.7305C93.4996 31.0823 92.6412 31.2476 91.7791 31.2142C89.6843 31.2142 87.6754 30.3598 86.1942 28.8389C84.713 27.318 83.8809 25.2552 83.8809 23.1044C83.8809 20.9535 84.713 18.8907 86.1942 17.3698C87.6754 15.8489 89.6843 14.9945 91.7791 14.9945C92.6417 14.9531 93.5019 15.1187 94.2914 15.4782C95.0818 15.8426 95.7762 16.3953 96.317 17.0905V15.4782L100.855 15.3814ZM96.317 23.1044C96.3521 22.3312 96.1547 21.5657 95.7517 20.9116C95.3829 20.2645 94.8368 19.743 94.1815 19.4122C93.496 19.0905 92.7317 18.9893 91.9891 19.1216C91.2465 19.254 90.5603 19.6138 90.0204 20.1538C89.4758 20.6876 89.1032 21.3796 88.9527 22.137C88.7867 22.8913 88.8525 23.6799 89.1411 24.3942C89.4238 25.0816 89.8947 25.67 90.4968 26.0879C91.0989 26.5057 91.8062 26.7351 92.5328 26.7481C93.0233 26.7852 93.516 26.7137 93.9774 26.5385C94.442 26.3712 94.8654 26.1016 95.2178 25.7485C95.5769 25.4025 95.8559 24.9783 96.0343 24.5071C96.2205 24.0641 96.3167 23.5868 96.317 23.1044Z" fill="white"/>
<path d="M103.524 23.3623C103.532 21.27 104.294 19.2546 105.663 17.705C107.032 16.1555 108.912 15.1815 110.939 14.9711C112.967 14.7608 114.998 15.3289 116.642 16.5658C118.285 17.8028 119.424 19.6209 119.839 21.6694C120.159 23.2923 120.001 24.9765 119.384 26.5063C118.973 27.5415 118.368 28.4834 117.603 29.2782C116.838 30.0729 115.927 30.7047 114.924 31.1376C113.92 31.5704 112.843 31.7957 111.755 31.8005C110.666 31.8054 109.588 31.5897 108.581 31.1659C107.576 30.7494 106.663 30.1299 105.895 29.344C105.121 28.5668 104.512 27.6337 104.105 26.6031C103.71 25.5714 103.513 24.4709 103.524 23.3623V23.3623ZM115.348 23.3623C115.321 22.6395 115.092 21.9399 114.689 21.347C114.284 20.7509 113.715 20.2926 113.054 20.0312C112.394 19.7698 111.673 19.717 110.983 19.8798C110.298 20.0324 109.672 20.3891 109.183 20.9053C108.694 21.4215 108.364 22.0743 108.235 22.7819C108.111 23.4931 108.187 24.2259 108.455 24.894C108.733 25.5515 109.191 26.1117 109.774 26.5063C110.269 26.8348 110.834 27.0382 111.42 27.0998C112.007 27.1615 112.6 27.0796 113.15 26.861C113.599 26.6754 114.006 26.3953 114.343 26.0387C114.68 25.6841 114.941 25.2619 115.112 24.7985C115.282 24.3352 115.357 23.8408 115.332 23.3462L115.348 23.3623Z" fill="white"/>
<path d="M122.147 11.1088C122.146 10.5354 122.309 9.97434 122.618 9.49649C122.924 9.02096 123.361 8.65034 123.874 8.43238C124.371 8.22028 124.917 8.16416 125.445 8.27115C125.986 8.38557 126.482 8.66035 126.873 9.06153C127.264 9.46271 127.531 9.97267 127.643 10.5284C127.748 11.0742 127.696 11.6397 127.492 12.1553C127.288 12.6709 126.942 13.1142 126.497 13.4305C126.031 13.7475 125.485 13.9158 124.926 13.9142C124.189 13.9017 123.485 13.5954 122.963 13.0598C122.442 12.5243 122.143 11.8016 122.131 11.0443L122.147 11.1088ZM122.618 15.3814H127.329V31.3431H122.618V15.3814Z" fill="white"/>
<path d="M147.491 23.3625C147.533 24.4187 147.384 25.4739 147.051 26.4742C146.701 27.4671 146.168 28.3813 145.481 29.1667C144.787 29.9504 143.949 30.5859 143.016 31.037C142.08 31.4753 141.074 31.7322 140.048 31.7948C139.183 31.8396 138.319 31.6854 137.52 31.3433C136.726 31.0051 136.013 30.4935 135.431 29.8439V37.728H130.721V15.3816H135.431V16.881C136.008 16.2203 136.723 15.7018 137.523 15.364C138.322 15.0262 139.185 14.8779 140.048 14.9301C141.076 14.9772 142.085 15.2348 143.016 15.6879C144.416 16.3705 145.588 17.4636 146.385 18.8294C147.181 20.1952 147.566 21.7725 147.491 23.3625V23.3625ZM142.78 23.3625C142.761 22.6072 142.526 21.8745 142.104 21.2553C141.683 20.6361 141.093 20.1578 140.409 19.8799C139.727 19.6194 138.988 19.5581 138.273 19.7025C137.565 19.8673 136.916 20.2365 136.405 20.7667C135.904 21.3061 135.566 21.9831 135.432 22.7157C135.299 23.4483 135.375 24.205 135.651 24.8941C135.933 25.5852 136.408 26.1745 137.017 26.5871C137.621 27.0018 138.332 27.2209 139.059 27.2159C139.559 27.2443 140.06 27.161 140.526 26.9717C140.992 26.7825 141.413 26.4917 141.759 26.1195C142.108 25.7526 142.376 25.3126 142.544 24.8297C142.721 24.3627 142.801 23.863 142.78 23.3625V23.3625Z" fill="white"/>
<path d="M161.811 26.5545C161.811 30.2305 158.671 31.7945 155.342 31.7945C153.985 31.9105 152.625 31.6132 151.432 30.9399C150.236 30.2509 149.272 29.2051 148.668 27.9411L152.704 25.571C152.868 26.1495 153.216 26.6547 153.693 27.0059C154.155 27.3271 154.706 27.4855 155.263 27.4574C156.378 27.4574 156.943 27.1027 156.943 26.4739C156.943 24.7165 149.297 25.6355 149.297 20.1214C149.297 16.6389 152.154 14.8815 155.389 14.8815C156.605 14.839 157.81 15.1341 158.877 15.7356C159.943 16.3372 160.832 17.2229 161.45 18.2995L157.462 20.5084C157.29 20.0874 157 19.7283 156.629 19.4765C156.262 19.2263 155.83 19.0969 155.389 19.1057C154.572 19.1057 154.086 19.412 154.086 19.9924C154.164 21.8627 161.811 20.6535 161.811 26.5545Z" fill="white"/>
<path d="M178.895 15.3813V31.3431H174.184V29.8437C173.645 30.5035 172.962 31.0229 172.19 31.3592C171.417 31.6957 170.579 31.8446 169.74 31.7945C166.6 31.7945 163.931 29.489 163.931 25.1841V15.3813H168.641V24.4747C168.604 24.8558 168.646 25.2408 168.767 25.6033C168.89 25.9616 169.082 26.2906 169.332 26.5707C169.597 26.8415 169.912 27.0553 170.259 27.1995C170.601 27.3454 170.972 27.4061 171.342 27.3768C173.054 27.3768 174.231 26.3611 174.231 24.1523V15.4458L178.895 15.3813Z" fill="white"/>
<path d="M205.589 21.4919V31.2947H200.878V21.9595C200.878 20.3472 200.125 19.3314 198.633 19.3314C197.141 19.3314 196.215 20.4601 196.215 22.3303V31.3431H191.504V21.9595C191.504 20.3472 190.766 19.3314 189.274 19.3314C187.783 19.3314 186.841 20.4601 186.841 22.3303V31.3431H182.13V15.3813H186.841V16.8485C187.319 16.1902 187.958 15.6731 188.693 15.3491C190.185 14.7632 191.839 14.7921 193.31 15.4297C194.028 15.7995 194.639 16.3552 195.084 17.042C195.601 16.3418 196.281 15.7872 197.063 15.4297C197.858 15.0723 198.725 14.9174 199.591 14.9782C203.249 14.9299 205.589 17.5579 205.589 21.4919Z" fill="white"/>
<path d="M209.53 15.2845C210.217 15.2877 210.89 15.0815 211.462 14.6919C212.035 14.3023 212.482 13.7469 212.747 13.0961C213.012 12.4453 213.083 11.7284 212.951 11.0361C212.819 10.3439 212.49 9.70749 212.005 9.20756C211.521 8.70762 210.902 8.36666 210.229 8.22786C209.555 8.08906 208.857 8.15868 208.222 8.42788C207.587 8.69709 207.044 9.15378 206.662 9.74009C206.28 10.3264 206.076 11.0159 206.076 11.7213C206.076 12.6636 206.439 13.5674 207.087 14.2352C207.734 14.903 208.613 15.2803 209.53 15.2845V15.2845Z" fill="white"/>
</g>
<defs>
<clipPath id="clip0_13_940">
<rect width="213" height="43" fill="white"/>
</clipPath>
</defs>
</svg>
