<svg width="48" height="48" viewBox="0 0 24 24" fill="none" xmlns="http://www.w3.org/2000/svg" data-reactroot="">
<path stroke-linejoin="round" stroke-linecap="round" stroke-width="1.5" stroke="#000000" fill="none" d="M2 3H8C9.06 3 10.08 3.42 10.83 4.17C11.58 4.92 12 5.94 12 7V21C12 20.2 11.68 19.44 11.12 18.88C10.56 18.32 9.8 18 9 18H2V3Z"></path>
<path stroke-linejoin="round" stroke-linecap="round" stroke-width="1.5" stroke="#000000" fill="none" d="M22 3H16C14.94 3 13.92 3.42 13.17 4.17C12.42 4.92 12 5.94 12 7V21C12 20.2 12.32 19.44 12.88 18.88C13.44 18.32 14.2 18 15 18H22V3Z"></path>
</svg>
