<svg width="103" height="49" viewBox="0 0 103 49" fill="none" xmlns="http://www.w3.org/2000/svg">
<g clip-path="url(#clip0_13_938)">
<path d="M0 29.4219H3.08096V44.5465H0V29.4219Z" fill="white"/>
<path d="M4.86636 39.3634C4.86176 38.2739 5.18411 37.208 5.79173 36.3037C6.47459 35.0258 7.63703 34.0715 9.02333 33.6508C10.4096 33.2302 11.9062 33.3776 13.1839 34.0605C14.4615 34.7435 15.4156 35.9062 15.8362 37.2928C16.2568 38.6793 16.1094 40.1762 15.4265 41.4541C15.0157 42.4607 14.3129 43.3212 13.4087 43.9248C12.5045 44.5283 11.4403 44.8473 10.3533 44.8406C9.63067 44.8476 8.91387 44.7106 8.24472 44.4377C7.57556 44.1647 6.96744 43.7613 6.45583 43.2508C5.94138 42.7437 5.53736 42.1357 5.26917 41.465C4.99468 40.7988 4.85766 40.084 4.86636 39.3634ZM12.7375 39.3634C12.7298 38.8952 12.5819 38.4401 12.3129 38.0568C12.0424 37.6693 11.6637 37.3701 11.2242 37.1965C10.7867 37.0305 10.3108 36.9927 9.85251 37.0877C9.39524 37.189 8.97841 37.424 8.65496 37.7628C8.33868 38.0994 8.13345 38.5252 8.06707 38.9823C7.98087 39.4447 8.03392 39.9222 8.21949 40.3543C8.39308 40.797 8.69674 41.1767 9.09043 41.4432C9.48005 41.7048 9.93847 41.845 10.4077 41.8461C10.7316 41.8485 11.053 41.7894 11.3549 41.6719C11.6507 41.5511 11.9178 41.3693 12.1387 41.1383C12.3668 40.9109 12.5415 40.6357 12.6504 40.3326C12.7486 40.0195 12.7783 39.689 12.7375 39.3634Z" fill="white"/>
<path d="M28.2403 34.1805V43.9805C28.2403 47.4649 25.5186 48.9349 22.7969 48.9349C21.8276 49.0314 20.85 48.866 19.9664 48.4558C19.0948 48.0043 18.367 47.3178 17.8652 46.474L20.5107 44.9496C20.7227 45.3718 21.0565 45.7208 21.4688 45.9514C21.8805 46.1892 22.3564 46.292 22.8296 46.2454C23.1406 46.2993 23.4598 46.2801 23.7621 46.1894C24.0645 46.0987 24.3415 45.9389 24.5715 45.7227C24.8014 45.5096 24.9769 45.2445 25.0832 44.9496C25.2015 44.6602 25.2464 44.3459 25.2138 44.0349V43.0767C24.8551 43.5196 24.3971 43.8717 23.877 44.1044C23.3568 44.3371 22.7891 44.4438 22.2199 44.416C20.8653 44.3544 19.5866 43.7728 18.6498 42.7922C17.713 41.8116 17.1902 40.5076 17.1902 39.1513C17.1902 37.795 17.713 36.4909 18.6498 35.5103C19.5866 34.5297 20.8653 33.9481 22.2199 33.8865C22.7948 33.8591 23.3682 33.967 23.8938 34.2015C24.4194 34.436 24.8827 34.7906 25.2465 35.2367V34.2131L28.2403 34.1805ZM25.2138 39.1567C25.2371 38.6547 25.1082 38.1573 24.844 37.7298C24.5798 37.3024 24.1926 36.9647 23.7332 36.7611C23.2776 36.5643 22.7757 36.5001 22.2853 36.576C21.7892 36.6595 21.33 36.891 20.968 37.2403C20.6047 37.585 20.3541 38.0315 20.2492 38.5212C20.1443 39.0109 20.1899 39.5209 20.3801 39.9843C20.5604 40.4534 20.8842 40.8535 21.3055 41.1276C21.7158 41.4092 22.2013 41.561 22.699 41.5632C23.0275 41.5858 23.3571 41.5413 23.6679 41.4325C23.9724 41.3134 24.2527 41.14 24.4953 40.9207C24.7309 40.6926 24.9164 40.418 25.0401 40.1143C25.1638 39.8106 25.223 39.4845 25.2138 39.1567V39.1567Z" fill="white"/>
<path d="M30.026 39.3633C30.0095 38.5467 30.1768 37.7369 30.5157 36.9938C30.8545 36.2507 31.3562 35.5934 31.9835 35.0705C32.6108 34.5476 33.3477 34.1726 34.1396 33.9733C34.9315 33.7739 35.758 33.7553 36.5581 33.9188C37.6345 34.1299 38.6236 34.6569 39.3992 35.4327C40.1749 36.2084 40.7018 37.1978 40.9128 38.2744C41.12 39.3423 41.0102 40.4476 40.5971 41.4539C40.2506 42.2892 39.7038 43.0262 39.0051 43.6001C38.3064 44.174 37.4772 44.5671 36.5907 44.7446C35.7042 44.9222 34.7876 44.8788 33.9218 44.6182C33.0561 44.3577 32.2677 43.888 31.6264 43.2506C31.1119 42.7436 30.7079 42.1356 30.4397 41.4648C30.1615 40.7994 30.0208 40.0845 30.026 39.3633V39.3633ZM37.8972 39.3633C37.8888 38.8912 37.7405 38.4323 37.4711 38.0446C37.2017 37.6569 36.8233 37.3579 36.3839 37.1855C35.9463 37.0194 35.4705 36.9817 35.0122 37.0766C34.5517 37.1778 34.1313 37.4126 33.8037 37.7517C33.475 38.0851 33.2549 38.5103 33.1723 38.9713C33.0802 39.4335 33.1284 39.9128 33.3108 40.3475C33.4931 40.7821 33.8013 41.1523 34.1957 41.4104C34.5853 41.672 35.0437 41.8122 35.513 41.8133C35.8345 41.8172 36.1533 41.7541 36.4492 41.6282C36.7457 41.5085 37.013 41.3266 37.2331 41.0946C37.452 40.8662 37.6224 40.5958 37.7339 40.2997C37.8452 40.0007 37.8934 39.6818 37.8754 39.3633H37.8972Z" fill="white"/>
<path d="M42.4367 31.4039C42.4284 31.0172 42.5385 30.6372 42.7524 30.315C42.9546 30.0055 43.2474 29.7659 43.5907 29.629C43.8505 29.5158 44.1326 29.4635 44.4156 29.4759C44.6987 29.4883 44.9752 29.5652 45.224 29.7007C45.4728 29.8362 45.6875 30.0266 45.8516 30.2576C46.0157 30.4886 46.1249 30.754 46.1709 31.0336C46.2445 31.3993 46.2065 31.7787 46.062 32.1225C45.9193 32.4625 45.6811 32.7537 45.3762 32.961C45.0943 33.1478 44.7671 33.2547 44.4294 33.2705C44.0916 33.2863 43.7559 33.2103 43.4578 33.0507C43.1598 32.891 42.9105 32.6536 42.7365 32.3637C42.5624 32.0737 42.4701 31.742 42.4694 31.4039H42.4367ZM42.7524 34.1805H45.8334V44.5467H42.7524V34.1805Z" fill="white"/>
<path d="M59.2351 39.3632C59.2782 40.0469 59.1819 40.7323 58.952 41.3776C58.7095 42.0287 58.3393 42.6247 57.8633 43.1307C57.4059 43.6422 56.8506 44.0569 56.2303 44.3503C55.6087 44.6428 54.9352 44.8094 54.2489 44.8403C53.7184 44.8553 53.191 44.7549 52.703 44.5463C52.1694 44.3303 51.6899 43.9994 51.2986 43.5772V48.7167H48.1741V34.18H51.255V35.16C51.6448 34.736 52.1224 34.4023 52.6546 34.1822C53.1868 33.9621 53.7607 33.8611 54.336 33.886C55.0197 33.9195 55.6898 34.0898 56.3065 34.3869C56.9258 34.6826 57.4835 35.0927 57.9504 35.5956C58.4271 36.1011 58.7974 36.6973 59.0391 37.3487C59.2393 38.0002 59.306 38.6853 59.2351 39.3632V39.3632ZM56.1541 39.3632C56.1461 38.8782 55.9904 38.4071 55.7077 38.0129C55.4354 37.6151 55.0507 37.3074 54.6029 37.1289C54.155 36.9505 53.6641 36.9095 53.1929 37.0112C52.7188 37.1031 52.2829 37.3344 51.9409 37.6754C51.6006 38.0195 51.3663 38.4541 51.2659 38.9276C51.1784 39.4025 51.2236 39.8923 51.3966 40.3432C51.5815 40.7823 51.8873 41.16 52.2784 41.432C52.6759 41.7066 53.1454 41.8581 53.6284 41.8676C53.9645 41.8886 54.3013 41.8375 54.6161 41.7177C54.9309 41.5979 55.2164 41.4121 55.4536 41.1729C55.6907 40.9336 55.874 40.6465 55.991 40.3306C56.1081 40.0147 56.1563 39.6774 56.1323 39.3414L56.1541 39.3632Z" fill="white"/>
<path d="M68.8809 41.443C68.8809 43.8277 66.8233 44.8404 64.5262 44.8404C63.6224 44.9179 62.716 44.7241 61.9229 44.2838C61.1297 43.8435 60.4858 43.1767 60.0735 42.3686L62.8061 40.8333C62.9173 41.2047 63.1515 41.5272 63.4702 41.7479C63.7864 41.9734 64.1715 42.0812 64.5588 42.0528C65.31 42.0528 65.6475 41.8133 65.6475 41.4104C65.6475 40.3215 60.4981 40.8768 60.4981 37.2944C60.4981 35.0295 62.4141 33.8862 64.6133 33.8862C65.4203 33.8602 66.2198 34.0479 66.931 34.4303C67.6422 34.8128 68.2397 35.3763 68.6632 36.0639L66.0068 37.5666C65.8897 37.293 65.6923 37.0614 65.4407 36.9024C65.192 36.7382 64.9004 36.651 64.6024 36.6519C64.0689 36.6519 63.7423 36.8479 63.7423 37.229C63.7859 38.3942 68.8809 37.5666 68.8809 41.443Z" fill="white"/>
<path d="M80.2357 34.1802V44.5464H77.1548V43.5773C76.79 44.0056 76.3319 44.3446 75.8157 44.5682C75.3048 44.7884 74.7483 44.8817 74.1936 44.8404C72.136 44.8404 70.3179 43.3486 70.3179 40.4848V34.1802H73.3879V40.0928C73.357 40.3431 73.3869 40.5971 73.475 40.8333C73.5564 41.0739 73.6902 41.2934 73.867 41.4757C74.0371 41.6651 74.2447 41.8172 74.4766 41.9222C74.7171 42.0085 74.9733 42.042 75.2278 42.0202C76.3165 42.0202 77.1439 41.356 77.1439 39.8424V34.1802H80.2357Z" fill="white"/>
<path d="M98.0573 38.1872V44.5463H94.9763V38.4594C94.9763 37.3705 94.4755 36.7498 93.4848 36.7498C92.4941 36.7498 91.8954 37.4794 91.8954 38.6554V44.5027H88.7817V38.4594C88.7817 37.3705 88.281 36.7498 87.2903 36.7498C86.2996 36.7498 85.6681 37.4794 85.6681 38.699V44.5463H82.5872V34.1801H85.6681V35.1383C85.9923 34.7163 86.4146 34.3798 86.8983 34.1583C87.3839 33.9432 87.9145 33.8498 88.4443 33.8861C88.9755 33.8616 89.5041 33.9741 89.9793 34.2127C90.4629 34.4662 90.8719 34.8415 91.166 35.3016C91.5007 34.8281 91.9553 34.4523 92.4833 34.2127C93.008 33.973 93.5843 33.8682 94.1598 33.9078C96.5114 33.8861 98.0573 35.5956 98.0573 38.1872Z" fill="white"/>
<path d="M100.692 34.115C101.151 34.1237 101.602 33.9954 101.987 33.7466C102.373 33.4978 102.675 33.1397 102.856 32.7181C103.037 32.2964 103.089 31.8304 103.004 31.3795C102.919 30.9285 102.701 30.5132 102.379 30.1864C102.057 29.8596 101.645 29.6362 101.196 29.5448C100.746 29.4534 100.279 29.4981 99.8553 29.6731C99.4312 29.8481 99.0689 30.1456 98.8146 30.5276C98.5604 30.9095 98.4257 31.3586 98.4278 31.8175C98.4277 32.4212 98.6652 33.0007 99.089 33.4306C99.5127 33.8606 100.089 34.1064 100.692 34.115Z" fill="white"/>
<path d="M10.7779 21.571C12.9127 21.5732 15.0001 20.9419 16.776 19.757C18.5519 18.5721 19.9364 16.8869 20.7543 14.9147C21.5722 12.9425 21.7868 10.7719 21.3709 8.67762C20.9549 6.58338 19.9272 4.65963 18.4177 3.14984C16.9082 1.64005 14.9848 0.612098 12.8909 0.196076C10.7971 -0.219946 8.62693 -0.00533221 6.65509 0.812754C4.68325 1.63084 2.99838 3.01562 1.81371 4.79184C0.629051 6.56806 -0.00214757 8.65587 5.48981e-06 10.791C5.48981e-06 13.6501 1.13553 16.392 3.15679 18.4136C5.17804 20.4353 7.91945 21.571 10.7779 21.571V21.571Z" fill="white"/>
<path d="M34.8923 21.571C37.0266 21.571 39.113 20.9379 40.8874 19.7517C42.6619 18.5655 44.0447 16.8795 44.861 14.9071C45.6772 12.9347 45.8902 10.7645 45.4731 8.67095C45.0559 6.57742 44.0273 4.65469 42.5173 3.14599C41.0074 1.63729 39.084 0.610419 36.9905 0.195281C34.8969 -0.219858 32.7273 -0.00460804 30.7561 0.813799C28.7849 1.63221 27.1007 3.017 25.9165 4.79298C24.7323 6.56896 24.1014 8.65634 24.1035 10.791C24.1035 12.2076 24.3827 13.6103 24.925 14.9189C25.4673 16.2275 26.2622 17.4163 27.2642 18.4175C28.2661 19.4187 29.4556 20.2125 30.7645 20.7536C32.0734 21.2947 33.476 21.5725 34.8923 21.571Z" fill="white"/>
</g>
<defs>
<clipPath id="clip0_13_938">
<rect width="103" height="49" fill="white"/>
</clipPath>
</defs>
</svg>
