<svg width="103" height="49" viewBox="0 0 103 49" fill="none" xmlns="http://www.w3.org/2000/svg">
<g clip-path="url(#clip0_13_941)">
<path d="M0 29.4219H3.08096V44.5465H0V29.4219Z" fill="white"/>
<path d="M4.8666 39.3634C4.862 38.2739 5.18436 37.208 5.79198 36.3037C6.47484 35.0258 7.63728 34.0715 9.02357 33.6508C10.4099 33.2302 11.9065 33.3776 13.1841 34.0605C14.4618 34.7435 15.4158 35.9062 15.8364 37.2928C16.257 38.6793 16.1097 40.1762 15.4268 41.4541C15.0159 42.4607 14.3131 43.3212 13.4089 43.9248C12.5047 44.5283 11.4406 44.8473 10.3535 44.8406C9.63092 44.8476 8.91412 44.7106 8.24496 44.4377C7.5758 44.1647 6.96769 43.7613 6.45607 43.2508C5.94162 42.7437 5.5376 42.1357 5.26941 41.465C4.99492 40.7988 4.85791 40.084 4.8666 39.3634ZM12.7378 39.3634C12.7301 38.8952 12.5822 38.4401 12.3132 38.0568C12.0426 37.6693 11.664 37.3701 11.2245 37.1965C10.7869 37.0305 10.311 36.9927 9.85275 37.0877C9.39549 37.189 8.97866 37.424 8.65521 37.7628C8.33892 38.0994 8.1337 38.5252 8.06732 38.9823C7.98111 39.4447 8.03416 39.9222 8.21973 40.3543C8.39332 40.797 8.69699 41.1767 9.09068 41.4432C9.4803 41.7048 9.93871 41.845 10.408 41.8461C10.7319 41.8485 11.0533 41.7894 11.3551 41.6719C11.651 41.5511 11.9181 41.3693 12.139 41.1383C12.367 40.9109 12.5418 40.6357 12.6507 40.3326C12.7489 40.0195 12.7786 39.689 12.7378 39.3634Z" fill="white"/>
<path d="M28.2401 34.1805V43.9805C28.2401 47.4649 25.5184 48.9349 22.7967 48.9349C21.8273 49.0314 20.8498 48.866 19.9661 48.4558C19.0946 48.0043 18.3667 47.3178 17.865 46.474L20.5105 44.9496C20.7225 45.3718 21.0562 45.7208 21.4685 45.9514C21.8803 46.1892 22.3562 46.292 22.8294 46.2454C23.1403 46.2993 23.4596 46.2801 23.7619 46.1894C24.0642 46.0987 24.3413 45.9389 24.5713 45.7227C24.8012 45.5096 24.9766 45.2445 25.0829 44.9496C25.2013 44.6602 25.2462 44.3459 25.2136 44.0349V43.0767C24.8549 43.5196 24.3969 43.8717 23.8767 44.1044C23.3565 44.3371 22.7889 44.4438 22.2197 44.416C20.8651 44.3544 19.5864 43.7728 18.6495 42.7922C17.7127 41.8116 17.1899 40.5076 17.1899 39.1513C17.1899 37.795 17.7127 36.4909 18.6495 35.5103C19.5864 34.5297 20.8651 33.9481 22.2197 33.8865C22.7946 33.8591 23.3679 33.967 23.8935 34.2015C24.4192 34.436 24.8825 34.7906 25.2462 35.2367V34.2131L28.2401 34.1805ZM25.2136 39.1567C25.2369 38.6547 25.108 38.1573 24.8438 37.7298C24.5796 37.3024 24.1924 36.9647 23.733 36.7611C23.2774 36.5643 22.7755 36.5001 22.285 36.576C21.789 36.6595 21.3298 36.891 20.9677 37.2403C20.6044 37.585 20.3539 38.0315 20.249 38.5212C20.144 39.0109 20.1897 39.5209 20.3798 39.9843C20.5601 40.4534 20.884 40.8535 21.3052 41.1276C21.7156 41.4092 22.2011 41.561 22.6987 41.5632C23.0272 41.5858 23.3569 41.5413 23.6676 41.4325C23.9722 41.3134 24.2525 41.14 24.495 40.9207C24.7306 40.6926 24.9162 40.418 25.0399 40.1143C25.1636 39.8106 25.2227 39.4845 25.2136 39.1567V39.1567Z" fill="white"/>
<path d="M30.026 39.3633C30.0095 38.5467 30.1768 37.7369 30.5157 36.9938C30.8545 36.2507 31.3562 35.5934 31.9835 35.0705C32.6108 34.5476 33.3477 34.1726 34.1396 33.9733C34.9315 33.7739 35.758 33.7553 36.5581 33.9188C37.6345 34.1299 38.6236 34.6569 39.3992 35.4327C40.1749 36.2084 40.7018 37.1978 40.9128 38.2744C41.12 39.3423 41.0102 40.4476 40.5971 41.4539C40.2506 42.2892 39.7038 43.0262 39.0051 43.6001C38.3064 44.174 37.4772 44.5671 36.5907 44.7446C35.7042 44.9222 34.7876 44.8788 33.9218 44.6182C33.0561 44.3577 32.2677 43.888 31.6264 43.2506C31.1119 42.7436 30.7079 42.1356 30.4397 41.4648C30.1615 40.7994 30.0208 40.0845 30.026 39.3633V39.3633ZM37.8972 39.3633C37.8888 38.8912 37.7405 38.4323 37.4711 38.0446C37.2017 37.6569 36.8233 37.3579 36.3839 37.1855C35.9463 37.0194 35.4705 36.9817 35.0122 37.0766C34.5517 37.1778 34.1313 37.4126 33.8037 37.7517C33.475 38.0851 33.2549 38.5103 33.1723 38.9713C33.0802 39.4335 33.1284 39.9128 33.3108 40.3475C33.4931 40.7821 33.8013 41.1523 34.1957 41.4104C34.5853 41.672 35.0437 41.8122 35.513 41.8133C35.8345 41.8172 36.1533 41.7541 36.4492 41.6282C36.7457 41.5085 37.013 41.3266 37.2331 41.0946C37.452 40.8662 37.6224 40.5958 37.7339 40.2997C37.8452 40.0007 37.8934 39.6818 37.8754 39.3633H37.8972Z" fill="white"/>
<path d="M42.4365 31.4039C42.4281 31.0172 42.5383 30.6372 42.7522 30.315C42.9544 30.0055 43.2471 29.7659 43.5905 29.629C43.8502 29.5158 44.1324 29.4635 44.4154 29.4759C44.6984 29.4883 44.9749 29.5652 45.2237 29.7007C45.4726 29.8362 45.6872 30.0266 45.8513 30.2576C46.0154 30.4886 46.1246 30.754 46.1707 31.0336C46.2442 31.3993 46.2063 31.7787 46.0618 32.1225C45.9191 32.4625 45.6808 32.7537 45.3759 32.961C45.0941 33.1478 44.7669 33.2547 44.4291 33.2705C44.0914 33.2863 43.7556 33.2103 43.4576 33.0507C43.1595 32.891 42.9102 32.6536 42.7362 32.3637C42.5622 32.0737 42.4699 31.742 42.4691 31.4039H42.4365ZM42.7522 34.1805H45.8332V44.5467H42.7522V34.1805Z" fill="white"/>
<path d="M59.2348 39.3632C59.278 40.0469 59.1817 40.7323 58.9518 41.3776C58.7092 42.0287 58.3391 42.6247 57.8631 43.1307C57.4056 43.6422 56.8504 44.0569 56.2301 44.3503C55.6084 44.6428 54.935 44.8094 54.2487 44.8403C53.7182 44.8553 53.1907 44.7549 52.7027 44.5463C52.1691 44.3303 51.6896 43.9994 51.2983 43.5772V48.7167H48.1738V34.18H51.2548V35.16C51.6445 34.736 52.1222 34.4023 52.6544 34.1822C53.1866 33.9621 53.7604 33.8611 54.3358 33.886C55.0195 33.9195 55.6895 34.0898 56.3063 34.3869C56.9255 34.6826 57.4833 35.0927 57.9502 35.5956C58.4269 36.1011 58.7971 36.6973 59.0389 37.3487C59.2391 38.0002 59.3057 38.6853 59.2348 39.3632V39.3632ZM56.1539 39.3632C56.1458 38.8782 55.9901 38.4071 55.7075 38.0129C55.4351 37.6151 55.0505 37.3074 54.6026 37.1289C54.1547 36.9505 53.6639 36.9095 53.1926 37.0112C52.7186 37.1031 52.2827 37.3344 51.9407 37.6754C51.6004 38.0195 51.3661 38.4541 51.2657 38.9276C51.1782 39.4025 51.2234 39.8923 51.3963 40.3432C51.5812 40.7823 51.887 41.16 52.2782 41.432C52.6756 41.7066 53.1451 41.8581 53.6281 41.8676C53.9643 41.8886 54.3011 41.8375 54.6159 41.7177C54.9307 41.5979 55.2162 41.4121 55.4533 41.1729C55.6905 40.9336 55.8737 40.6465 55.9908 40.3306C56.1078 40.0147 56.156 39.6774 56.1321 39.3414L56.1539 39.3632Z" fill="white"/>
<path d="M68.8807 41.443C68.8807 43.8277 66.8231 44.8404 64.5259 44.8404C63.6221 44.9179 62.7158 44.7241 61.9226 44.2838C61.1295 43.8435 60.4856 43.1767 60.0732 42.3686L62.8058 40.8333C62.9171 41.2047 63.1513 41.5272 63.4699 41.7479C63.7862 41.9734 64.1713 42.0812 64.5586 42.0528C65.3098 42.0528 65.6473 41.8133 65.6473 41.4104C65.6473 40.3215 60.4978 40.8768 60.4978 37.2944C60.4978 35.0295 62.4139 33.8862 64.613 33.8862C65.42 33.8602 66.2196 34.0479 66.9308 34.4303C67.6419 34.8128 68.2395 35.3763 68.6629 36.0639L66.0065 37.5666C65.8894 37.293 65.692 37.0614 65.4404 36.9024C65.1917 36.7382 64.9001 36.651 64.6021 36.6519C64.0687 36.6519 63.7421 36.8479 63.7421 37.229C63.7856 38.3942 68.8807 37.5666 68.8807 41.443Z" fill="white"/>
<path d="M80.2357 34.1802V44.5464H77.1548V43.5773C76.79 44.0056 76.3319 44.3446 75.8157 44.5682C75.3048 44.7884 74.7483 44.8817 74.1936 44.8404C72.136 44.8404 70.3179 43.3486 70.3179 40.4848V34.1802H73.3879V40.0928C73.357 40.3431 73.3869 40.5971 73.475 40.8333C73.5564 41.0739 73.6902 41.2934 73.867 41.4757C74.0371 41.6651 74.2447 41.8172 74.4766 41.9222C74.7171 42.0085 74.9733 42.042 75.2278 42.0202C76.3165 42.0202 77.1439 41.356 77.1439 39.8424V34.1802H80.2357Z" fill="white"/>
<path d="M98.0571 38.1872V44.5463H94.9761V38.4594C94.9761 37.3705 94.4753 36.7498 93.4846 36.7498C92.4939 36.7498 91.8951 37.4794 91.8951 38.6554V44.5027H88.7815V38.4594C88.7815 37.3705 88.2807 36.7498 87.29 36.7498C86.2993 36.7498 85.6679 37.4794 85.6679 38.699V44.5463H82.5869V34.1801H85.6679V35.1383C85.992 34.7163 86.4143 34.3798 86.8981 34.1583C87.3836 33.9432 87.9142 33.8498 88.444 33.8861C88.9752 33.8616 89.5038 33.9741 89.9791 34.2127C90.4626 34.4662 90.8717 34.8415 91.1657 35.3016C91.5004 34.8281 91.9551 34.4523 92.483 34.2127C93.0077 33.973 93.5841 33.8682 94.1596 33.9078C96.5111 33.8861 98.0571 35.5956 98.0571 38.1872Z" fill="white"/>
<path d="M100.692 34.115C101.151 34.1237 101.602 33.9954 101.987 33.7466C102.373 33.4978 102.675 33.1397 102.856 32.7181C103.037 32.2964 103.089 31.8304 103.004 31.3795C102.919 30.9285 102.701 30.5132 102.379 30.1864C102.057 29.8596 101.645 29.6362 101.196 29.5448C100.746 29.4534 100.279 29.4981 99.8553 29.6731C99.4312 29.8481 99.0689 30.1456 98.8146 30.5276C98.5604 30.9095 98.4257 31.3586 98.4278 31.8175C98.4277 32.4212 98.6652 33.0007 99.089 33.4306C99.5127 33.8606 100.089 34.1064 100.692 34.115Z" fill="white"/>
<path d="M34.8922 21.571C37.0269 21.5732 39.1144 20.9419 40.8902 19.757C42.6661 18.5721 44.0506 16.8869 44.8686 14.9147C45.6865 12.9425 45.9011 10.7719 45.4851 8.67762C45.0692 6.58338 44.0414 4.65963 42.5319 3.14984C41.0224 1.64005 39.099 0.612098 37.0052 0.196076C34.9114 -0.219946 32.7412 -0.00533221 30.7693 0.812754C28.7975 1.63084 27.1126 3.01562 25.928 4.79184C24.7433 6.56806 24.1121 8.65587 24.1143 10.791C24.1143 13.6501 25.2498 16.392 27.271 18.4136C29.2923 20.4353 32.0337 21.571 34.8922 21.571V21.571Z" fill="white"/>
<path d="M59.0066 21.571C61.1409 21.571 63.2272 20.9379 65.0017 19.7517C66.7761 18.5655 68.159 16.8795 68.9752 14.9071C69.7915 12.9347 70.0045 10.7645 69.5873 8.67095C69.1701 6.57742 68.1415 4.65469 66.6316 3.14599C65.1217 1.63729 63.1983 0.610419 61.1047 0.195281C59.0112 -0.219858 56.8416 -0.00460803 54.8703 0.813799C52.8991 1.63221 51.2149 3.017 50.0307 4.79298C48.8465 6.56896 48.2156 8.65634 48.2178 10.791C48.2178 12.2076 48.4969 13.6103 49.0392 14.9189C49.5816 16.2275 50.3764 17.4163 51.3784 18.4175C52.3804 19.4187 53.5698 20.2125 54.8787 20.7536C56.1876 21.2947 57.5903 21.5725 59.0066 21.571Z" fill="white"/>
<path d="M21.579 0H0.012207V21.56H21.579V0Z" fill="white"/>
</g>
<defs>
<clipPath id="clip0_13_941">
<rect width="103" height="49" fill="white"/>
</clipPath>
</defs>
</svg>
