<svg width="221" height="35" viewBox="0 0 221 35" fill="none" xmlns="http://www.w3.org/2000/svg">
<path d="M66.2197 2.39844H70.922V25.2399H66.2197V2.39844Z" fill="white"/>
<path d="M73.5554 17.4149C73.5437 15.7737 74.0186 14.1664 74.9191 12.7992C75.59 11.7716 76.4791 10.9072 77.522 10.2687C78.565 9.63024 79.7357 9.23364 80.9493 9.10761C82.163 8.98159 83.3892 9.1293 84.5393 9.54005C85.6894 9.95079 86.7345 10.6143 87.599 11.4825C88.4635 12.3508 89.1257 13.402 89.5377 14.5601C89.9498 15.7183 90.1013 16.9543 89.9813 18.1787C89.8614 19.4032 89.4729 20.5854 88.8441 21.6398C88.2153 22.6942 87.3619 23.5944 86.3457 24.2753C84.9975 25.1907 83.4096 25.6804 81.7844 25.6821C80.7101 25.6799 79.646 25.4707 78.6496 25.0656C77.6523 24.6519 76.7457 24.0438 75.9819 23.2762C75.218 22.5086 74.6118 21.5965 74.198 20.5922C73.7743 19.5874 73.5557 18.5068 73.5554 17.4149V17.4149ZM85.3425 17.4149C85.3309 16.8805 85.2011 16.3554 84.9625 15.8781C84.7239 15.4007 84.3826 14.9831 83.9634 14.6559C83.5443 14.3286 83.0579 14.1 82.5399 13.9866C82.0219 13.8732 81.4853 13.878 80.9694 14.0006C80.2854 14.1491 79.6591 14.4951 79.1668 14.9964C78.6907 15.5098 78.3746 16.1529 78.2577 16.8459C78.1173 17.5424 78.194 18.2657 78.4771 18.9166C78.7512 19.5684 79.2095 20.1244 79.7948 20.5151C80.3802 20.9059 81.0668 21.1141 81.7687 21.1138C82.2459 21.1252 82.7204 21.0391 83.1638 20.8609C83.6102 20.675 84.0152 20.4009 84.355 20.0548C84.6851 19.7036 84.9414 19.2887 85.1084 18.835C85.2754 18.3813 85.3497 17.8983 85.3268 17.4149H85.3425Z" fill="white"/>
<path d="M108.509 9.59103V24.4498C108.509 29.6978 104.45 31.9267 100.311 31.9267C98.8588 32.0361 97.4044 31.74 96.1076 31.0708C94.8109 30.4015 93.7219 29.3851 92.9602 28.1329L96.9415 25.8251C97.2515 26.4927 97.7613 27.0456 98.3992 27.4058C99.0265 27.7658 99.7511 27.9153 100.468 27.8326C100.93 27.8998 101.402 27.862 101.848 27.7219C102.288 27.5755 102.691 27.3322 103.027 27.0096C103.363 26.687 103.624 26.2933 103.791 25.8567C103.949 25.4167 104.013 24.9481 103.979 24.4815V23.0588C103.435 23.7361 102.743 24.2772 101.957 24.6395C101.167 24.9844 100.31 25.1465 99.4494 25.1137C97.3584 25.1137 95.353 24.276 93.8744 22.7849C92.3958 21.2938 91.5652 19.2714 91.5652 17.1627C91.5652 15.054 92.3958 13.0316 93.8744 11.5405C95.353 10.0494 97.3584 9.21166 99.4494 9.21166C100.311 9.17111 101.169 9.33347 101.957 9.68587C102.746 10.0432 103.439 10.5851 103.979 11.2666V9.68587L108.509 9.59103ZM103.979 17.1627C104.014 16.4047 103.817 15.6542 103.415 15.0129C103.047 14.3784 102.502 13.8672 101.848 13.5428C101.163 13.2275 100.4 13.1282 99.6591 13.258C98.9178 13.3877 98.2328 13.7405 97.6939 14.27C97.1502 14.7932 96.7783 15.4717 96.628 16.2143C96.4624 16.9538 96.5281 17.727 96.8161 18.4273C97.0983 19.1012 97.5684 19.6781 98.1694 20.0878C98.7704 20.4975 99.4764 20.7223 100.202 20.7351C100.691 20.7714 101.183 20.7014 101.644 20.5296C102.108 20.3656 102.53 20.1013 102.882 19.7551C103.24 19.4158 103.519 18.9999 103.697 18.5379C103.883 18.1036 103.979 17.6357 103.979 17.1627Z" fill="white"/>
<path d="M111.174 17.4154C111.181 15.3641 111.941 13.3882 113.308 11.8689C114.675 10.3497 116.551 9.39482 118.575 9.18856C120.599 8.9823 122.627 9.53927 124.267 10.752C125.908 11.9647 127.045 13.7473 127.459 15.7557C127.779 17.3468 127.621 18.998 127.005 20.4978C126.595 21.5128 125.991 22.4363 125.227 23.2154C124.463 23.9945 123.554 24.614 122.553 25.0384C121.551 25.4628 120.476 25.6836 119.389 25.6884C118.303 25.6932 117.226 25.4817 116.221 25.0661C115.218 24.6579 114.306 24.0504 113.54 23.2799C112.767 22.518 112.159 21.6031 111.754 20.5927C111.359 19.5812 111.162 18.5023 111.174 17.4154V17.4154ZM122.976 17.4154C122.949 16.7068 122.721 16.0209 122.318 15.4395C121.914 14.8551 121.346 14.4059 120.687 14.1495C120.028 13.8932 119.307 13.8415 118.619 14.0011C117.935 14.1507 117.31 14.5004 116.822 15.0065C116.334 15.5126 116.005 16.1526 115.876 16.8464C115.752 17.5436 115.828 18.2621 116.095 18.9171C116.373 19.5617 116.83 20.111 117.412 20.4978C117.907 20.8199 118.47 21.0193 119.056 21.0797C119.641 21.1402 120.233 21.0599 120.782 20.8456C121.23 20.6637 121.636 20.389 121.973 20.0394C122.309 19.6917 122.57 19.2778 122.74 18.8235C122.91 18.3693 122.985 17.8845 122.961 17.3996L122.976 17.4154Z" fill="white"/>
<path d="M129.764 5.40131C129.762 4.83912 129.926 4.28907 130.234 3.82058C130.539 3.35436 130.976 2.991 131.488 2.7773C131.983 2.56936 132.529 2.51435 133.055 2.61923C133.596 2.73141 134.091 3.00082 134.481 3.39414C134.871 3.78746 135.139 4.28744 135.25 4.83225C135.355 5.36737 135.303 5.9218 135.099 6.42733C134.896 6.93285 134.551 7.36742 134.106 7.67755C133.641 7.98832 133.096 8.15333 132.538 8.15177C131.802 8.13956 131.099 7.8392 130.579 7.31416C130.058 6.78911 129.76 6.08051 129.748 5.33808L129.764 5.40131ZM130.234 9.59023H134.936V25.2394H130.234V9.59023Z" fill="white"/>
<path d="M155.062 17.4154C155.104 18.451 154.955 19.4855 154.623 20.4662C154.274 21.4396 153.741 22.3359 153.055 23.106C152.363 23.8743 151.526 24.4974 150.595 24.9396C149.661 25.3694 148.657 25.6212 147.632 25.6826C146.769 25.7266 145.906 25.5754 145.109 25.24C144.316 24.9084 143.605 24.4067 143.024 23.7699V31.4997H138.322V9.5908H143.024V11.0609C143.6 10.4131 144.313 9.90474 145.111 9.57358C145.909 9.24242 146.771 9.09702 147.632 9.1482C148.659 9.1943 149.666 9.4469 150.595 9.89114C151.993 10.5604 153.163 11.6321 153.958 12.9711C154.753 14.3101 155.137 15.8565 155.062 17.4154V17.4154ZM150.359 17.4154C150.34 16.675 150.106 15.9565 149.685 15.3495C149.264 14.7424 148.676 14.2735 147.993 14.001C147.312 13.7457 146.574 13.6855 145.861 13.8271C145.153 13.9887 144.506 14.3506 143.996 14.8704C143.496 15.3993 143.158 16.0631 143.025 16.7813C142.891 17.4996 142.967 18.2414 143.243 18.9171C143.524 19.5946 143.999 20.1724 144.607 20.5768C145.21 20.9835 145.92 21.1982 146.645 21.1933C147.144 21.2212 147.644 21.1395 148.109 20.954C148.575 20.7684 148.995 20.4834 149.341 20.1184C149.689 19.7587 149.956 19.3274 150.124 18.8539C150.301 18.396 150.381 17.9061 150.359 17.4154V17.4154Z" fill="white"/>
<path d="M169.357 20.5451C169.357 24.1491 166.222 25.6824 162.899 25.6824C161.545 25.7962 160.187 25.5048 158.996 24.8446C157.803 24.1691 156.841 23.1438 156.238 21.9045L160.266 19.5808C160.43 20.148 160.777 20.6434 161.253 20.9877C161.714 21.3025 162.265 21.4579 162.821 21.4303C163.934 21.4303 164.498 21.0825 164.498 20.466C164.498 18.743 156.865 19.644 156.865 14.238C156.865 10.8236 159.717 9.10061 162.946 9.10061C164.16 9.059 165.363 9.3483 166.428 9.93805C167.493 10.5278 168.38 11.3962 168.996 12.4518L165.015 14.6173C164.844 14.2046 164.555 13.8525 164.184 13.6057C163.818 13.3603 163.386 13.2335 162.946 13.2421C162.131 13.2421 161.645 13.5424 161.645 14.1115C161.724 15.9452 169.357 14.7596 169.357 20.5451Z" fill="white"/>
<path d="M186.411 9.59082V25.24H181.709V23.7699C181.171 24.4169 180.488 24.9261 179.718 25.2558C178.946 25.5856 178.109 25.7317 177.273 25.6826C174.138 25.6826 171.473 23.4222 171.473 19.2016V9.59082H176.175V18.5061C176.138 18.8797 176.181 19.2572 176.301 19.6126C176.424 19.9638 176.616 20.2864 176.865 20.5611C177.13 20.8265 177.444 21.0361 177.79 21.1775C178.132 21.3205 178.502 21.3801 178.871 21.3514C180.58 21.3514 181.756 20.3556 181.756 18.19V9.65405L186.411 9.59082Z" fill="white"/>
<path d="M213.057 15.5812V25.192H208.355V16.0396C208.355 14.4589 207.603 13.463 206.114 13.463C204.625 13.463 203.7 14.5695 203.7 16.4032V25.2394H198.997V16.0396C198.997 14.4589 198.261 13.463 196.772 13.463C195.283 13.463 194.342 14.5695 194.342 16.4032V25.2394H189.64V9.59024H194.342V11.0287C194.82 10.3833 195.458 9.87629 196.192 9.55863C197.68 8.98427 199.332 9.01259 200.8 9.63766C201.517 10.0002 202.127 10.5451 202.571 11.2184C203.087 10.5319 203.766 9.98818 204.546 9.63766C205.34 9.28725 206.206 9.1354 207.07 9.19506C210.722 9.14764 213.057 11.7242 213.057 15.5812Z" fill="white"/>
<path d="M216.992 9.49556C217.678 9.49869 218.349 9.29647 218.921 8.91452C219.492 8.53256 219.939 7.98807 220.203 7.35001C220.468 6.71196 220.539 6.00906 220.407 5.33037C220.275 4.65168 219.946 4.02774 219.462 3.53759C218.979 3.04745 218.361 2.71316 217.689 2.57708C217.017 2.441 216.319 2.50925 215.686 2.77319C215.052 3.03713 214.51 3.48487 214.128 4.05969C213.747 4.63452 213.543 5.31056 213.543 6.00216C213.543 6.92593 213.906 7.81211 214.552 8.46679C215.199 9.12148 216.076 9.49138 216.992 9.49556V9.49556Z" fill="white"/>
<g clip-path="url(#clip0_13_937)">
<path d="M26.5 25.5102L35.8176 35L53 17.5L35.8176 0L26.5 9.4898L34.3648 17.5L26.5 25.5102Z" fill="white"/>
<path d="M26.5 25.5102L18.6352 17.5L26.5 9.4898L17.1824 0L0 17.5L17.1824 35L26.5 25.5102Z" fill="white"/>
</g>
<defs>
<clipPath id="clip0_13_937">
<rect width="53" height="35" fill="white"/>
</clipPath>
</defs>
</svg>
