<svg width="2484" height="812" viewBox="0 0 2484 812" fill="none" xmlns="http://www.w3.org/2000/svg">
<path d="M626.533 480.667C629 483.133 641.333 512.733 668.467 569.467C680.8 591.667 685.733 611.4 685.733 631.133V636.067C685.733 668.133 673.4 700.2 648.733 724.867C621.6 749.533 592 761.867 557.467 761.867H555C522.933 761.867 495.8 749.533 468.667 727.333C456.333 715 448.933 705.133 444 697.733C441.533 692.8 419.333 645.933 377.4 554.667H308.333C266.4 643.467 244.2 690.333 239.267 700.2C224.467 727.333 199.8 744.6 170.2 754.467C155.4 759.4 143.067 759.4 133.2 759.4H128.267C93.7334 759.4 64.1334 744.6 34.5334 717.467C12.3334 690.333 0 663.2 0 631.133V628.667C0 584.267 24.6667 552.2 71.5334 532.467C88.8 525.067 106.067 522.6 123.333 522.6C189.933 522.6 239.267 522.6 273.8 522.6H397.133C436.6 522.6 493.333 522.6 562.4 522.6C569.8 522.6 579.667 520.133 594.467 512.733C611.733 505.333 621.6 493 626.533 480.667ZM596.933 416.533C596.933 431.333 592 448.6 582.133 468.333C569.8 488.067 552.533 497.933 527.867 497.933H185C108.533 497.933 54.2667 507.8 27.1334 527.533C34.5334 517.667 44.4 505.333 61.6667 495.467C88.8 478.2 118.4 470.8 155.4 470.8H530.333C559.933 468.333 582.133 451.067 596.933 416.533ZM128.267 705.133C103.6 705.133 83.8667 692.8 69.0667 670.6C61.6667 658.267 59.2 645.933 59.2 633.6V631.133C59.2 618.8 64.1333 604 74 584.267L83.8667 562.067C59.2 571.933 44.4 584.267 37 601.533C32.0667 611.4 32.0666 621.267 32.0666 631.133V636.067C32.0666 660.733 41.9333 682.933 61.6667 705.133C81.4 722.4 103.6 732.267 125.8 732.267H133.2C157.867 732.267 180.067 722.4 199.8 702.667C207.2 692.8 212.133 685.4 217.067 678C217.067 678 236.8 636.067 273.8 554.667H244.2C241.733 557.133 224.467 594.133 189.933 668.133C175.133 692.8 155.4 705.133 128.267 705.133ZM567.333 349.933C567.333 382 559.933 404.2 542.667 421.467C532.8 431.333 518 438.733 495.8 438.733H199.8C148 438.733 111 441.2 93.7333 448.6C78.9333 453.533 69.0667 458.467 61.6667 465.867C76.4667 441.2 101.133 426.4 133.2 414.067C148 409.133 160.333 409.133 175.133 409.133H485.933C508.133 409.133 525.4 404.2 535.267 396.8C547.6 389.4 559.933 374.6 564.867 352.4C564.867 352.4 567.333 352.4 567.333 349.933ZM88.8001 621.267C88.8001 626.2 86.3333 628.667 86.3333 631.133V633.6C86.3333 650.867 96.2001 663.2 113.467 673.067C118.4 675.533 123.333 675.533 128.267 675.533H130.733C145.533 675.533 157.867 668.133 165.267 653.333L212.133 554.667H182.533C180.067 557.133 167.733 584.267 140.6 643.467C135.667 648.4 133.2 648.4 128.267 648.4C120.867 648.4 115.933 643.467 113.467 636.067V631.133C113.467 628.667 118.4 618.8 125.8 601.533L148 552.2H125.8C123.333 552.2 120.867 552.2 118.4 552.2C101.133 594.133 91.2667 613.867 88.8001 621.267ZM540.2 293.2V298.133C537.733 340.067 525.4 367.2 500.733 377.067C495.8 379.533 481 382 456.333 382H214.6C150.467 382 108.533 391.867 91.2667 409.133C101.133 394.333 111 384.467 125.8 374.6C133.2 369.667 143.067 364.733 155.4 359.8C170.2 354.867 192.4 352.4 217.067 352.4H468.667C500.733 352.4 522.933 337.6 535.267 308C537.733 298.133 540.2 293.2 540.2 293.2ZM345.333 49C379.867 49 409.467 63.8 436.6 88.4666C448.933 103.267 458.8 115.6 463.733 132.867C485.933 179.733 498.267 209.333 503.2 214.267C508.133 229.067 510.6 241.4 510.6 253.733C510.6 283.333 498.267 305.533 473.6 317.867C463.733 322.8 448.933 325.267 429.2 325.267C389.733 325.267 350.267 325.267 305.867 325.267H234.333C192.4 325.267 162.8 330.2 145.533 337.6C135.667 340.067 125.8 347.467 115.933 354.867C187.467 204.4 224.467 125.467 226.933 115.6C231.867 108.2 236.8 98.3333 246.667 88.4666C273.8 61.3333 305.867 49 337.933 49H345.333ZM170.2 310.467C180.067 305.533 189.933 303.067 202.267 300.6C204.733 300.6 204.733 300.6 204.733 300.6C249.133 204.4 273.8 152.6 278.733 142.733C281.2 137.8 288.6 127.933 296 120.533C308.333 110.667 323.133 105.733 340.4 105.733H342.867C365.067 105.733 384.8 115.6 399.6 135.333C404.533 142.733 409.467 155.067 419.333 174.8C421.8 177.267 436.6 214.267 468.667 278.4C473.6 268.533 476.067 258.667 476.067 246.333C476.067 234 471.133 219.2 461.267 201.933C439.067 155.067 426.733 130.4 424.267 123C411.933 103.267 394.667 88.4666 370 81.0666C360.133 78.6 350.267 76.1333 342.867 76.1333H335.467C310.8 76.1333 288.6 86 266.4 105.733C256.533 118.067 249.133 130.4 244.2 142.733L170.2 310.467ZM239.267 298.133H268.867C271.333 295.667 291.067 253.733 330.533 169.867C333 164.933 337.933 162.467 342.867 162.467C350.267 162.467 355.2 167.4 357.667 177.267C394.667 256.2 411.933 295.667 414.4 298.133H436.6C439.067 298.133 441.533 298.133 444 298.133C402.067 206.867 379.867 160 374.933 152.6C365.067 140.267 352.733 135.333 340.4 135.333C320.667 135.333 305.867 145.2 298.467 167.4L239.267 298.133ZM303.4 298.133C337.933 298.133 362.6 298.133 379.867 298.133H382.333L342.867 211.8C342.867 214.267 328.067 241.4 303.4 298.133ZM592 544.8C611.733 584.267 621.6 606.467 624.067 613.867C626.533 621.267 626.533 626.2 626.533 633.6C626.533 658.267 614.2 680.467 592 695.267C579.667 702.667 567.333 705.133 555 705.133H552.533C525.4 705.133 505.667 692.8 490.867 668.133C456.333 594.133 439.067 557.133 439.067 554.667H409.467C446.467 636.067 468.667 680.467 471.133 687.867C481 700.2 490.867 710.067 503.2 717.467C520.467 727.333 537.733 732.267 552.533 732.267H559.933C584.6 732.267 606.8 722.4 626.533 702.667C646.267 682.933 656.133 660.733 656.133 633.6V631.133C656.133 613.867 651.2 594.133 638.867 574.4C624.067 539.867 616.667 522.6 614.2 522.6C609.267 532.467 601.867 537.4 592 544.8ZM535.267 554.667C557.467 601.533 569.8 626.2 569.8 631.133V636.067C567.333 645.933 562.4 648.4 557.467 648.4C557.467 648.4 557.467 648.4 555 648.4C547.6 648.4 540.2 641 537.733 628.667C535.267 623.733 522.933 599.067 503.2 554.667H473.6C503.2 616.333 518 650.867 522.933 658.267C532.8 670.6 542.667 675.533 555 675.533H557.467C572.267 675.533 584.6 668.133 592 653.333C594.467 648.4 596.933 641 596.933 636.067V633.6C596.933 626.2 592 611.4 582.133 596.6L562.4 554.667C559.933 554.667 557.467 554.667 552.533 554.667H535.267V554.667Z" fill="#973909"/>
<path d="M1005.53 271.333H971V0H990.733L1106.67 202.267L1222.6 0H1242.33V271.333H1207.8V96.2L1106.67 271.333L1005.53 96.2V271.333Z" fill="#465362"/>
<path d="M1269.47 175.133C1269.47 118.4 1308.93 76.4668 1363.2 76.4668C1417.47 76.4668 1454.47 123.334 1456.93 185H1304C1308.93 217.067 1333.6 239.267 1363.2 239.267C1387.87 239.267 1407.6 222 1419.93 194.867L1452 207.2C1434.73 249.134 1402.67 273.8 1363.2 273.8C1308.93 273.8 1269.47 231.867 1269.47 175.133ZM1417.47 152.933C1410.07 128.267 1387.87 111 1360.73 111C1333.6 111 1313.87 128.267 1304 152.933H1417.47Z" fill="#465362"/>
<path d="M1484.07 204.734H1516.13C1518.6 229.4 1543.27 239.267 1565.47 239.267C1585.2 239.267 1612.33 231.867 1612.33 212.133C1612.33 197.333 1587.67 192.4 1563 187.467C1523.53 180.067 1489 167.734 1489 133.2C1489 98.6669 1521.07 76.4668 1565.47 76.4668C1607.4 76.4668 1639.47 103.6 1641.93 143.067H1607.4C1604.93 123.334 1587.67 111 1565.47 111C1545.73 111 1523.53 118.4 1523.53 135.667C1523.53 148 1543.27 152.934 1567.93 157.867C1609.87 165.267 1646.87 175.133 1646.87 214.6C1646.87 251.6 1612.33 273.8 1565.47 273.8C1521.07 273.8 1486.53 244.2 1484.07 204.734Z" fill="#465362"/>
<path d="M1757.87 271.333C1718.4 268.867 1686.33 241.733 1686.33 209.667V113.467H1656.73V81.4001H1686.33V0H1720.87V81.4001H1755.4V113.467H1720.87V209.667C1720.87 224.467 1738.13 236.8 1757.87 236.8V271.333Z" fill="#465362"/>
<path d="M1010.47 727.667H973.467L1106.67 456.334L1239.87 727.667H1202.87L1165.87 656.134H1045L1010.47 727.667ZM1106.67 532.801L1062.27 621.601H1151.07L1106.67 532.801Z" fill="#465362"/>
<path d="M1304 727.667H1269.47V537.734H1304V545.134C1316.33 537.734 1328.67 532.801 1343.47 532.801C1385.4 532.801 1417.47 564.867 1417.47 606.801V725.201H1382.93V606.801C1382.93 584.601 1365.67 567.334 1343.47 567.334C1321.27 567.334 1304 584.601 1304 606.801V727.667Z" fill="#465362"/>
<path d="M1447.07 668.466C1447.07 631.466 1484.07 604.332 1530.93 604.332H1567.93V601.866C1565.47 584.599 1550.67 569.799 1528.47 569.799C1508.73 569.799 1486.53 582.132 1481.6 606.799H1447.07C1452 559.932 1491.47 535.266 1528.47 535.266C1572.87 535.266 1600 562.399 1600 604.332V725.199H1565.47V717.799C1553.13 725.199 1538.33 730.132 1523.53 730.132C1481.6 730.132 1447.07 702.999 1447.07 668.466ZM1567.93 668.466V636.399H1530.93C1503.8 636.399 1479.13 648.732 1479.13 665.999C1479.13 680.799 1498.87 695.599 1523.53 695.599C1548.2 698.066 1565.47 685.732 1567.93 668.466Z" fill="#465362"/>
<path d="M1664.13 727.667H1629.6V456.334H1664.13V727.667Z" fill="#465362"/>
<path d="M1757.87 811.534H1723.33L1772.67 703.001L1696.2 537.734H1733.2L1789.93 666.001L1846.67 537.734H1883.67L1757.87 811.534Z" fill="#465362"/>
<path d="M2014.4 730.134C1974.93 727.667 1942.87 700.534 1942.87 668.467V572.267H1913.27V540.201H1942.87V456.334H1977.4V537.734H2011.93V569.801H1977.4V666.001C1977.4 680.801 1992.2 693.134 2014.4 693.134V730.134Z" fill="#465362"/>
<path d="M2044 488.399C2044 476.066 2053.87 468.666 2063.73 468.666C2076.07 468.666 2083.47 478.533 2083.47 488.399C2083.47 500.733 2073.6 508.133 2063.73 508.133C2053.87 508.133 2044 498.266 2044 488.399ZM2081 727.666H2046.47V537.733H2081V727.666Z" fill="#465362"/>
<path d="M2113.07 633.932C2113.07 577.199 2152.53 535.266 2206.8 535.266C2238.87 535.266 2268.47 554.999 2290.67 587.066L2263.53 604.332C2248.73 582.132 2226.53 567.332 2206.8 567.332C2172.27 567.332 2147.6 594.466 2147.6 631.466C2147.6 668.466 2172.27 695.599 2206.8 695.599C2226.53 695.599 2246.27 683.266 2263.53 658.599L2290.67 675.866C2268.47 707.932 2238.87 727.666 2206.8 727.666C2155 730.132 2113.07 690.666 2113.07 633.932Z" fill="#465362"/>
<path d="M2320.27 663.532H2352.33C2354.8 688.199 2379.47 698.066 2401.67 698.066C2421.4 698.066 2448.53 690.666 2448.53 670.932C2448.53 656.132 2423.87 651.199 2399.2 646.266C2359.73 638.866 2325.2 626.532 2325.2 591.999C2325.2 557.466 2357.27 535.266 2401.67 535.266C2443.6 535.266 2475.67 562.399 2478.13 601.866H2443.6C2441.13 582.132 2423.87 569.799 2401.67 569.799C2381.93 569.799 2359.73 577.199 2359.73 594.466C2359.73 606.799 2379.47 611.732 2404.13 616.666C2446.07 624.066 2483.07 633.932 2483.07 673.399C2483.07 710.399 2448.53 732.599 2401.67 732.599C2357.27 730.132 2322.73 702.999 2320.27 663.532Z" fill="#465362"/>
</svg>
